<?xml version="1.0" encoding="UTF-8" standalone="no"?><!DOCTYPE svg PUBLIC "-//W3C//DTD SVG 1.1//EN" "http://www.w3.org/Graphics/SVG/1.1/DTD/svg11.dtd"><svg width="100%" height="100%" viewBox="0 0 109 109" version="1.1" xmlns="http://www.w3.org/2000/svg" xmlns:xlink="http://www.w3.org/1999/xlink" xml:space="preserve" style="fill-rule:evenodd;clip-rule:evenodd;stroke-linecap:round;stroke-linejoin:round;"><path d="M92.7,15.9c21.2,21.2 21.2,55.6 0,76.8c-21.2,21.2 -55.6,21.2 -76.8,0c-21.2,-21.2 -21.2,-55.6 0,-76.8c21.2,-21.2 55.6,-21.2 76.8,0Z" style="fill:#20b046;fill-rule:nonzero;"/><g><clipPath id="_clip1"><path d="M21.6,86.2l65,0l0,-64l-65,0l0,64Z"/></clipPath><g clip-path="url(#_clip1)"><path d="M61.2,79.2l0,5c0,0.6 -0.408,1 -1.02,1l-10.2,0c-0.612,0 -1.02,-0.4 -1.02,-1l0,-5" style="fill:none;stroke:#fff;stroke-width:2.02px;"/><path d="M53.1,85.2l0,-6" style="fill:none;stroke:#fff;stroke-width:2.02px;"/><path d="M57.1,85.2l0,-6" style="fill:none;stroke:#fff;stroke-width:2.02px;"/><path d="M76.4,42.2c0,-11.6 -9.588,-19 -21.42,-19c-11.832,0 -21.42,7.4 -21.42,19c0,17 14.28,23 14.28,33l14.28,0c0,-10 14.28,-16 14.28,-33Z" style="fill:none;stroke:#fff;stroke-width:2.02px;"/><path d="M55.1,23.2c-7.14,0 -13.26,7.4 -13.26,19c0,17 9.18,25 9.18,33" style="fill:none;stroke:#fff;stroke-width:2.02px;"/><path d="M55.1,23.2c7.14,0 13.26,7.4 13.26,19c0,17 -9.18,25 -9.18,33" style="fill:none;stroke:#fff;stroke-width:2.02px;"/><path d="M54.1,75.2c0,-6 -4.08,-20.3 -4.08,-33c0,-12.7 2.856,-19 5.1,-19" style="fill:none;stroke:#fff;stroke-width:2.02px;"/><path d="M56.1,75.2c0,-6 4.08,-20.3 4.08,-33c0,-12.7 -2.856,-19 -5.1,-19" style="fill:none;stroke:#fff;stroke-width:2.02px;"/><path d="M47,79.2l16.32,0" style="fill:none;stroke:#fff;stroke-width:2.02px;"/><path d="M33.8,56.2c-2.856,0 -5.1,2.2 -5.1,5c-3.366,0 -6.12,2.7 -6.12,6c0,3.3 2.754,6 6.12,6l15.3,0" style="fill:none;stroke:#fff;stroke-width:2.02px;"/><path d="M23.6,27.2c6.12,0 6.12,4 6.12,4c0,0 0,-4 6.12,-4" style="fill:none;stroke:#fff;stroke-width:2.02px;"/><path d="M73.4,61.2l8.16,0c2.244,0 4.08,-1.8 4.08,-4c0,-2.2 -1.836,-4 -4.08,-4c0,-1.7 -1.326,-3 -3.06,-3" style="fill:none;stroke:#fff;stroke-width:2.02px;"/></g></g></svg>