<?xml version="1.0" encoding="UTF-8" standalone="no"?><!DOCTYPE svg PUBLIC "-//W3C//DTD SVG 1.1//EN" "http://www.w3.org/Graphics/SVG/1.1/DTD/svg11.dtd"><svg width="100%" height="100%" viewBox="0 0 543 543" version="1.1" xmlns="http://www.w3.org/2000/svg" xmlns:xlink="http://www.w3.org/1999/xlink" xml:space="preserve" xmlns:serif="http://www.serif.com/" style="fill-rule:evenodd;clip-rule:evenodd;stroke-linejoin:round;stroke-miterlimit:10;"><g><path d="M463.378,79.459c-105.946,-105.945 -277.974,-105.945 -383.919,0c-105.945,105.945 -105.945,277.973 0,383.919c105.945,105.945 277.973,105.945 383.919,0c105.945,-105.946 105.945,-277.974 0,-383.919Z" style="fill:#1baf44;"/><g><clipPath id="_clip1"><rect x="109.499" y="120.675" width="323.838" height="301.333" clip-rule="nonzero"/></clipPath><g clip-path="url(#_clip1)"><path d="M277.03,206.053c0,-44.35 -36.444,-80.356 -81.333,-80.356c-44.889,0 -81.334,36.006 -81.334,80.356c0,44.349 36.445,80.355 81.334,80.355c44.889,0 81.333,-36.006 81.333,-80.355Z" style="fill:none;stroke:#fff;stroke-width:10.11px;"/><path d="M109.28,416.986l325.334,0" style="fill:none;stroke:#fff;stroke-width:10.11px;"/><path d="M388.864,416.986l0,-30.133" style="fill:none;stroke:#fff;stroke-width:10.11px;"/><path d="M368.53,416.986l0,-30.133" style="fill:none;stroke:#fff;stroke-width:10.11px;"/><path d="M287.197,416.986l0,-30.133" style="fill:none;stroke:#fff;stroke-width:10.11px;"/><path d="M266.864,416.986l0,-30.133" style="fill:none;stroke:#fff;stroke-width:10.11px;"/><path d="M231.28,386.853l193.167,0" style="fill:none;stroke:#fff;stroke-width:10.11px;"/><path d="M231.28,356.719l193.167,0" style="fill:none;stroke:#fff;stroke-width:10.11px;"/><path d="M231.28,336.63l193.167,0" style="fill:none;stroke:#fff;stroke-width:10.11px;"/><path d="M231.28,316.541l193.167,0" style="fill:none;stroke:#fff;stroke-width:10.11px;"/><path d="M277.03,386.853l0,-70.311" style="fill:none;stroke:#fff;stroke-width:10.11px;"/><path d="M378.697,386.853l0,-70.311" style="fill:none;stroke:#fff;stroke-width:10.11px;"/><path d="M195.697,416.986l0,-241.067" style="fill:none;stroke:#fff;stroke-width:10.11px;"/><path d="M195.697,216.097l25.416,-25.111" style="fill:none;stroke:#fff;stroke-width:10.11px;"/><path d="M195.697,246.23l-25.417,-25.111" style="fill:none;stroke:#fff;stroke-width:10.11px;"/></g></g></g></svg>