<?xml version="1.0" encoding="UTF-8" standalone="no"?><!DOCTYPE svg PUBLIC "-//W3C//DTD SVG 1.1//EN" "http://www.w3.org/Graphics/SVG/1.1/DTD/svg11.dtd"><svg width="100%" height="100%" viewBox="0 0 109 109" version="1.1" xmlns="http://www.w3.org/2000/svg" xmlns:xlink="http://www.w3.org/1999/xlink" xml:space="preserve" style="fill-rule:evenodd;clip-rule:evenodd;"><path d="M92.7,15.9c21.2,21.2 21.2,55.6 0,76.8c-21.2,21.2 -55.6,21.2 -76.8,0c-21.2,-21.2 -21.2,-55.6 0,-76.8c21.2,-21.2 55.6,-21.2 76.8,0Z" style="fill:#20b046;fill-rule:nonzero;"/><g><clipPath id="_clip1"><path d="M26.1,86.2l57,0l0,-64l-57,0l0,64Z"/></clipPath><g clip-path="url(#_clip1)"><path d="M54.6,55.2c0,0 18.36,-12 18.36,-23c0,-5 -4.08,-9 -9.18,-9c-5.1,0 -9.18,4 -9.18,7c0,-3 -4.08,-7 -9.18,-7c-5.1,0 -9.18,4 -9.18,9c0,11 18.36,23 18.36,23Z" style="fill:none;stroke:#fff;stroke-width:2.02px;"/><path d="M70.9,53.2c0,7 -4.794,12 -8.16,12c-2.04,0 -4.08,-2 -4.08,-4c0,-3.3 5.1,-8 12.24,-8Z" style="fill:none;stroke:#fff;stroke-width:2.02px;"/><path d="M38.3,63.2c0,7 4.794,12 8.16,12c2.04,0 4.08,-2 4.08,-4c0,-3.3 -5.1,-8 -12.24,-8Z" style="fill:none;stroke:#fff;stroke-width:2.02px;"/><path d="M54.6,85.2l0,-40" style="fill:none;stroke:#fff;stroke-width:2.02px;"/><path d="M64.8,59.2l-8.16,8c0,0 -2.04,2 -2.04,5" style="fill:none;stroke:#fff;stroke-width:2.02px;"/><path d="M44.4,69.2l8.16,8c0,0 2.04,2 2.04,5" style="fill:none;stroke:#fff;stroke-width:2.02px;"/><path d="M54.6,37.2l0,2" style="fill:none;stroke:#fff;stroke-width:2.02px;"/><path d="M54.6,41.2l0,2" style="fill:none;stroke:#fff;stroke-width:2.02px;"/><path d="M26.1,85.2l57.12,0" style="fill:none;stroke:#fff;stroke-width:2.02px;"/><path d="M63.8,27.2c2.856,0 5.1,2.2 5.1,5" style="fill:none;stroke:#fff;stroke-width:2.02px;stroke-linejoin:round;"/><path d="M40.3,32.2c0,-2.8 2.244,-5 5.1,-5" style="fill:none;stroke:#fff;stroke-width:2.02px;stroke-linejoin:round;"/></g></g></svg>