<?xml version="1.0" encoding="UTF-8" standalone="no"?><!DOCTYPE svg PUBLIC "-//W3C//DTD SVG 1.1//EN" "http://www.w3.org/Graphics/SVG/1.1/DTD/svg11.dtd"><svg width="100%" height="100%" viewBox="0 0 109 109" version="1.1" xmlns="http://www.w3.org/2000/svg" xmlns:xlink="http://www.w3.org/1999/xlink" xml:space="preserve" style="fill-rule:evenodd;clip-rule:evenodd;stroke-linejoin:round;stroke-miterlimit:1.41421;"><path d="M92.7,15.9c21.2,21.2 21.2,55.6 0,76.8c-21.2,21.2 -55.6,21.2 -76.8,0c-21.2,-21.2 -21.2,-55.6 0,-76.8c21.2,-21.2 55.6,-21.2 76.8,0Z" style="fill:#20b046;fill-rule:nonzero;"/><g><clipPath id="_clip1"><path d="M24.1,87.8l61,0l0,-62l-61,0l0,62Z"/></clipPath><g clip-path="url(#_clip1)"><path d="M70.5,74.1c1.7,0 2.9,-1.2 2.9,-2.9c0,-1.6 -1.3,-2.9 -2.9,-2.9c-1.6,0 -2.9,1.3 -2.9,2.9c0,1.7 1.3,2.9 2.9,2.9m5.6,-2.9c0,3.1 -2.5,5.6 -5.6,5.6c-3.1,0 -5.6,-2.5 -5.6,-5.6c0,-3.1 2.5,-5.6 5.6,-5.6c3.1,0 5.6,2.5 5.6,5.6" style="fill:#fff;fill-rule:nonzero;"/><path d="M48.9,82.4c0,1.5 1.2,2.7 2.6,2.7c1.4,0 2.6,-1.2 2.6,-2.6c0,-1.5 -1.1,-2.6 -2.6,-2.6c-1.5,-0.1 -2.6,1.1 -2.6,2.5m2.6,-5.2c3,0 5.4,2.3 5.3,5.3c0,2.9 -2.3,5.3 -5.3,5.3c-3,0 -5.4,-2.4 -5.4,-5.4c0,-2.9 2.4,-5.2 5.4,-5.2" style="fill:#fff;fill-rule:nonzero;"/><path d="M34.5,62.5c0,-0.9 -0.8,-1.7 -1.7,-1.7c-1,0 -1.7,0.8 -1.7,1.7c0,1 0.8,1.7 1.7,1.7c0.9,0 1.7,-0.7 1.7,-1.7m-6.1,0.1c0,-2.5 2,-4.4 4.4,-4.4c2.5,0 4.4,2 4.4,4.5c0,2.4 -2,4.3 -4.5,4.3c-2.4,0 -4.3,-2 -4.3,-4.4" style="fill:#fff;fill-rule:nonzero;"/><path d="M51.5,54.1c1.1,0 2,-1 2,-2c0,-1.1 -0.9,-2 -2,-2c-1.1,-0.1 -2,0.9 -2,2c-0.1,1 0.9,2 2,2m-4.1,-2c0,-2.3 1.9,-4.1 4.1,-4.1c2.3,0.1 4.1,1.9 4.1,4.1c0,2.2 -1.9,4 -4.1,4c-2.3,0 -4.1,-1.8 -4.1,-4" style="fill:#fff;fill-rule:nonzero;"/><path d="M79.4,38.7c0,1 0.8,1.8 1.8,1.9c1,0 1.9,-0.9 1.9,-1.9c0,-1 -0.9,-1.8 -1.9,-1.8c-1,0 -1.8,0.8 -1.8,1.8m5.7,0c0,2.2 -1.7,3.9 -3.8,3.9c-2.2,0 -3.9,-1.8 -3.9,-3.9c0,-2.1 1.7,-3.8 3.9,-3.8c2.1,0 3.8,1.7 3.8,3.8" style="fill:#fff;fill-rule:nonzero;"/><path d="M68.7,54c0,1.1 0.8,1.9 1.8,1.9c1,0 1.9,-0.8 1.9,-1.7c0,-1 -0.9,-1.9 -1.9,-1.9c-1,0 -1.8,0.8 -1.8,1.7m5.7,0c0,2.1 -1.8,3.9 -3.9,3.9c-2.1,0 -3.8,-1.8 -3.8,-3.9c0,-2.1 1.7,-3.8 3.9,-3.8c2.1,0 3.8,1.7 3.8,3.8" style="fill:#fff;fill-rule:nonzero;"/><path d="M53.2,64.4c0,-0.9 -0.7,-1.7 -1.7,-1.7c-0.9,0 -1.7,0.8 -1.7,1.7c0,1 0.7,1.7 1.7,1.7c1,0 1.7,-0.7 1.7,-1.7m-1.7,-3.6c2,0 3.7,1.7 3.7,3.7c0,2 -1.6,3.7 -3.7,3.7c-2,0 -3.7,-1.7 -3.7,-3.7c0,-2 1.6,-3.7 3.7,-3.7" style="fill:#fff;fill-rule:nonzero;"/><path d="M44.7,30c0.5,-1 1.2,-1.8 2.1,-2.6c0.6,0.7 1.1,1.4 1.7,2c-0.5,0.6 -0.9,1.2 -1.4,1.8c-0.8,-0.4 -1.5,-0.8 -2.4,-1.2" style="fill:#fff;fill-rule:nonzero;"/><path d="M56.2,27.4c0.9,0.7 1.5,1.6 2.1,2.6c-0.8,0.4 -1.6,0.8 -2.4,1.2c-0.5,-0.6 -0.9,-1.2 -1.4,-1.8c0.5,-0.6 1.1,-1.3 1.7,-2" style="fill:#fff;fill-rule:nonzero;"/><path d="M55.9,35.4c0.2,-0.7 0.3,-1.4 0.5,-2.1l2.6,0c0,1.1 -0.2,2.1 -0.7,3.2c-0.9,-0.4 -1.6,-0.8 -2.4,-1.1" style="fill:#fff;fill-rule:nonzero;"/><path d="M53.1,26c-0.2,0.9 -0.4,1.7 -0.6,2.6l-2.1,0c-0.2,-0.9 -0.4,-1.7 -0.6,-2.6c1.1,-0.3 2.2,-0.3 3.3,0" style="fill:#fff;fill-rule:nonzero;"/><path d="M53.2,40.5c-0.2,-0.9 -0.4,-1.7 -0.6,-2.5c0.7,-0.3 1.3,-0.6 1.9,-1c0.5,0.7 1.1,1.3 1.7,2.1c-0.9,0.7 -1.9,1.1 -3,1.4" style="fill:#fff;fill-rule:nonzero;"/><path d="M47,35.4c-0.7,0.3 -1.4,0.7 -2.3,1.1c-0.5,-1 -0.7,-2 -0.7,-3.2c0.8,0 1.7,0 2.5,0c0.1,0 0.2,0.1 0.2,0.2c0.1,0.6 0.2,1.2 0.3,1.9" style="fill:#fff;fill-rule:nonzero;"/><path d="M48.5,37.1c0.7,0.3 1.3,0.6 2,1c-0.2,0.8 -0.4,1.6 -0.6,2.4c-0.9,-0.1 -2.4,-0.8 -3,-1.4c0.6,-0.7 1.1,-1.3 1.6,-2" style="fill:#fff;fill-rule:nonzero;"/><path d="M28.4,51.5c-0.4,-0.3 -0.8,-0.6 -1.2,-0.9c0.5,-0.7 1.1,-1.4 1.6,-2l0.1,0c0.8,0.5 0.8,0.5 0.4,1.3c-0.3,0.5 -0.6,1 -0.9,1.6" style="fill:#fff;fill-rule:nonzero;"/><path d="M34,49.8c0.2,0.9 0.3,1.7 0.5,2.6c-0.6,0.1 -1,0.2 -1.5,0.2l0,-2.7c0.3,0 0.6,0 1,-0.1" style="fill:#fff;fill-rule:nonzero;"/><path d="M39.7,49.4c-0.4,0.4 -0.8,0.8 -1.1,1.1c-0.6,-0.7 -1.2,-1.3 -1.8,-2c0.3,-0.2 0.5,-0.4 0.8,-0.7c0.6,0.5 1.3,1 2.1,1.6" style="fill:#fff;fill-rule:nonzero;"/><path d="M27,41.8c-0.9,-0.3 -1.7,-0.6 -2.5,-0.8c0.2,-0.5 0.4,-1 0.6,-1.5c0.7,0.5 1.4,0.9 2.1,1.3c0.1,0 0.2,0.2 0.1,0.3c0,0.2 -0.2,0.4 -0.3,0.7" style="fill:#fff;fill-rule:nonzero;"/><path d="M35.7,35.5c-0.3,0.9 -0.6,1.7 -0.9,2.5c-0.3,-0.1 -0.7,-0.1 -1,-0.2c0.1,-0.9 0.3,-1.7 0.4,-2.7c0.5,0.2 1,0.3 1.5,0.4" style="fill:#fff;fill-rule:nonzero;"/><path d="M39.5,38.1c0.3,0.4 0.6,0.8 0.9,1.2c-0.8,0.5 -1.5,1 -2.3,1.4c-0.2,-0.2 -0.4,-0.5 -0.6,-0.8c0.6,-0.6 1.3,-1.2 2,-1.8" style="fill:#fff;fill-rule:nonzero;"/><path d="M38.9,44.9c0,-0.4 0.1,-0.7 0.1,-1c0.8,-0.1 1.6,-0.1 2.4,-0.2c0.1,0 0.2,0.2 0.3,0.2c0,0.1 0,0.2 0,0.2c-0.1,1.2 -0.1,1.2 -1.2,1c-0.5,-0.1 -1,-0.1 -1.6,-0.2" style="fill:#fff;fill-rule:nonzero;"/><path d="M28.3,36.3c0.5,-0.2 0.9,-0.5 1.4,-0.7c0.3,0.9 0.6,1.7 0.9,2.5c-0.1,0 -0.1,0 -0.1,0.1c-0.8,0.5 -0.8,0.5 -1.3,-0.3c-0.3,-0.5 -0.6,-1 -0.9,-1.6" style="fill:#fff;fill-rule:nonzero;"/><path d="M24.1,45.5c0.9,-0.2 1.7,-0.3 2.6,-0.5c0.1,0.3 0.2,0.6 0.3,0.9l-0.2,0.2c-0.7,0.3 -1.5,0.5 -2.2,0.8c-0.2,-0.5 -0.3,-0.9 -0.5,-1.4" style="fill:#fff;fill-rule:nonzero;"/></g></g></svg>