<?xml version="1.0" encoding="UTF-8" standalone="no"?><!DOCTYPE svg PUBLIC "-//W3C//DTD SVG 1.1//EN" "http://www.w3.org/Graphics/SVG/1.1/DTD/svg11.dtd"><svg width="100%" height="100%" viewBox="0 0 1172 227" version="1.1" xmlns="http://www.w3.org/2000/svg" xmlns:xlink="http://www.w3.org/1999/xlink" xml:space="preserve" style="fill-rule:evenodd;clip-rule:evenodd;stroke-linejoin:round;stroke-miterlimit:1.41421;"><path d="M180.671,115.522l99.803,0.966l-0.074,5.943l-99.803,-0.966l0.074,-5.943Zm2.822,11.96l-17.748,-9.137l17.97,-8.691l-0.222,17.828Zm94.085,-17.011l17.674,9.063l-17.897,8.765l0.223,-17.828Z" style="fill:#18a0f1;fill-rule:nonzero;stroke:#18a0f1;stroke-width:0.07px;"/><path d="M489.586,115.522l99.803,0.966l-0.074,5.943l-99.803,-0.966l0.074,-5.943Zm2.822,11.96l-17.748,-9.137l17.97,-8.691l-0.222,17.828Zm94.085,-17.011l17.674,9.063l-17.897,8.765l0.223,-17.828Z" style="fill:#18a0f1;fill-rule:nonzero;stroke:#18a0f1;stroke-width:0.07px;"/><path d="M829.392,115.522l95.051,0.966l-0.074,5.943l-95.051,-0.966l0.074,-5.943Zm2.822,11.96l-17.747,-9.137l17.97,-8.691l-0.223,17.828Zm89.333,-17.011l17.674,9.063l-17.897,8.765l0.223,-17.828Z" style="fill:#18a0f1;fill-rule:nonzero;stroke:#18a0f1;stroke-width:0.07px;"/><path d="M0,117.751c0,-26.223 21.312,-47.542 47.525,-47.542l134.26,0c26.287,0 47.525,21.319 47.525,47.542c0,26.296 -21.238,47.542 -47.525,47.542l-134.26,0c-26.213,0 -47.525,-21.246 -47.525,-47.542Z" style="fill:#189ff0;"/><g transform="matrix(1.18813,0,0,1.18855,25.5867,113.474)"><text x="0px" y="0px" style="font-family:'SegoeUI', 'Segoe UI', sans-serif;font-size:17px;fill:#fff;">P</text><text x="10.001px" y="0px" style="font-family:'SegoeUI', 'Segoe UI', sans-serif;font-size:17px;fill:#fff;">r</text><text x="15.771px" y="0px" style="font-family:'SegoeUI', 'Segoe UI', sans-serif;font-size:17px;fill:#fff;">o</text><text x="25.77px" y="0px" style="font-family:'SegoeUI', 'Segoe UI', sans-serif;font-size:17px;fill:#fff;">g</text><text x="35.768px" y="0px" style="font-family:'SegoeUI', 'Segoe UI', sans-serif;font-size:17px;fill:#fff;">r</text><text x="41.762px" y="0px" style="font-family:'SegoeUI', 'Segoe UI', sans-serif;font-size:17px;fill:#fff;">a</text><text x="50.758px" y="0px" style="font-family:'SegoeUI', 'Segoe UI', sans-serif;font-size:17px;fill:#fff;">m</text><text x="68.763px" y="0px" style="font-family:'SegoeUI', 'Segoe UI', sans-serif;font-size:17px;fill:#fff;">p</text><text x="78.761px" y="0px" style="font-family:'SegoeUI', 'Segoe UI', sans-serif;font-size:17px;fill:#fff;">l</text><text x="82.764px" y="0px" style="font-family:'SegoeUI', 'Segoe UI', sans-serif;font-size:17px;fill:#fff;">a</text><text x="91.76px" y="0px" style="font-family:'SegoeUI', 'Segoe UI', sans-serif;font-size:17px;fill:#fff;">n<tspan x="101.759px " y="0px ">n</tspan></text><text x="111.758px" y="0px" style="font-family:'SegoeUI', 'Segoe UI', sans-serif;font-size:17px;fill:#fff;">i</text><text x="115.761px" y="0px" style="font-family:'SegoeUI', 'Segoe UI', sans-serif;font-size:17px;fill:#fff;">n</text><text x="125.759px" y="0px" style="font-family:'SegoeUI', 'Segoe UI', sans-serif;font-size:17px;fill:#fff;">g</text></g><g transform="matrix(1.18813,0,0,1.18855,25.5867,137.245)"><text x="0px" y="0px" style="font-family:'SegoeUI', 'Segoe UI', sans-serif;font-size:17px;fill:#fff;">&amp;</text><text x="18.004px" y="0px" style="font-family:'SegoeUI', 'Segoe UI', sans-serif;font-size:17px;fill:#fff;">p</text><text x="28.002px" y="0px" style="font-family:'SegoeUI', 'Segoe UI', sans-serif;font-size:17px;fill:#fff;">r</text><text x="33.772px" y="0px" style="font-family:'SegoeUI', 'Segoe UI', sans-serif;font-size:17px;fill:#fff;">e</text><text x="42.771px" y="0px" style="font-family:'SegoeUI', 'Segoe UI', sans-serif;font-size:17px;fill:#fff;">d</text><text x="52.769px" y="0px" style="font-family:'SegoeUI', 'Segoe UI', sans-serif;font-size:17px;fill:#fff;">e</text><text x="61.768px" y="0px" style="font-family:'SegoeUI', 'Segoe UI', sans-serif;font-size:17px;fill:#fff;">v</text><text x="69.668px" y="0px" style="font-family:'SegoeUI', 'Segoe UI', sans-serif;font-size:17px;fill:#fff;">e</text><text x="78.667px" y="0px" style="font-family:'SegoeUI', 'Segoe UI', sans-serif;font-size:17px;fill:#fff;">l</text><text x="82.671px" y="0px" style="font-family:'SegoeUI', 'Segoe UI', sans-serif;font-size:17px;fill:#fff;">o</text><text x="92.67px" y="0px" style="font-family:'SegoeUI', 'Segoe UI', sans-serif;font-size:17px;fill:#fff;">p</text><text x="102.668px" y="0px" style="font-family:'SegoeUI', 'Segoe UI', sans-serif;font-size:17px;fill:#fff;">m</text><text x="117.673px" y="0px" style="font-family:'SegoeUI', 'Segoe UI', sans-serif;font-size:17px;fill:#fff;">e</text><text x="126.672px" y="0px" style="font-family:'SegoeUI', 'Segoe UI', sans-serif;font-size:17px;fill:#fff;">n</text><text x="135.671px" y="0px" style="font-family:'SegoeUI', 'Segoe UI', sans-serif;font-size:17px;fill:#fff;">t</text></g><path d="M304.163,117.751c0,-26.223 21.312,-47.542 47.525,-47.542l136.635,0c26.288,0 47.526,21.319 47.526,47.542c0,26.296 -21.238,47.542 -47.526,47.542l-136.635,0c-26.213,0 -47.525,-21.246 -47.525,-47.542Z" style="fill:#189ff0;"/><g transform="matrix(1.18813,0,0,1.18855,330.437,113.474)"><text x="0px" y="0px" style="font-family:'SegoeUI', 'Segoe UI', sans-serif;font-size:17px;fill:#fff;">F</text><text x="8.005px" y="0px" style="font-family:'SegoeUI', 'Segoe UI', sans-serif;font-size:17px;fill:#fff;">i</text><text x="12.008px" y="0px" style="font-family:'SegoeUI', 'Segoe UI', sans-serif;font-size:17px;fill:#fff;">n</text><text x="22.007px" y="0px" style="font-family:'SegoeUI', 'Segoe UI', sans-serif;font-size:17px;fill:#fff;">a</text><text x="31.003px" y="0px" style="font-family:'SegoeUI', 'Segoe UI', sans-serif;font-size:17px;fill:#fff;">n</text><text x="41.002px" y="0px" style="font-family:'SegoeUI', 'Segoe UI', sans-serif;font-size:17px;fill:#fff;">c</text><text x="49px" y="0px" style="font-family:'SegoeUI', 'Segoe UI', sans-serif;font-size:17px;fill:#fff;">i</text><text x="53.003px" y="0px" style="font-family:'SegoeUI', 'Segoe UI', sans-serif;font-size:17px;fill:#fff;">n</text><text x="63.002px" y="0px" style="font-family:'SegoeUI', 'Segoe UI', sans-serif;font-size:17px;fill:#fff;">g</text><text x="75.998px" y="0px" style="font-family:'SegoeUI', 'Segoe UI', sans-serif;font-size:17px;fill:#fff;">&amp;</text></g><g transform="matrix(1.18813,0,0,1.18855,330.437,137.245)"><text x="0px" y="0px" style="font-family:'SegoeUI', 'Segoe UI', sans-serif;font-size:17px;fill:#fff;">C</text><text x="11.002px" y="0px" style="font-family:'SegoeUI', 'Segoe UI', sans-serif;font-size:17px;fill:#fff;">o</text><text x="21.001px" y="0px" style="font-family:'SegoeUI', 'Segoe UI', sans-serif;font-size:17px;fill:#fff;">n</text><text x="31px" y="0px" style="font-family:'SegoeUI', 'Segoe UI', sans-serif;font-size:17px;fill:#fff;">t</text><text x="36.998px" y="0px" style="font-family:'SegoeUI', 'Segoe UI', sans-serif;font-size:17px;fill:#fff;">r</text><text x="42.992px" y="0px" style="font-family:'SegoeUI', 'Segoe UI', sans-serif;font-size:17px;fill:#fff;">a</text><text x="51.988px" y="0px" style="font-family:'SegoeUI', 'Segoe UI', sans-serif;font-size:17px;fill:#fff;">c</text><text x="59.987px" y="0px" style="font-family:'SegoeUI', 'Segoe UI', sans-serif;font-size:17px;fill:#fff;">t</text><text x="65.985px" y="0px" style="font-family:'SegoeUI', 'Segoe UI', sans-serif;font-size:17px;fill:#fff;">i</text><text x="69.988px" y="0px" style="font-family:'SegoeUI', 'Segoe UI', sans-serif;font-size:17px;fill:#fff;">n</text><text x="78.986px" y="0px" style="font-family:'SegoeUI', 'Segoe UI', sans-serif;font-size:17px;fill:#fff;">g</text></g><path d="M611.89,117.751c0,-26.223 21.312,-47.542 47.525,-47.542l128.318,0c26.288,0 47.526,21.319 47.526,47.542c0,26.296 -21.238,47.542 -47.526,47.542l-128.318,0c-26.213,0 -47.525,-21.246 -47.525,-47.542Z" style="fill:#189ff0;"/><g transform="matrix(1.18813,0,0,1.18855,637.305,125.36)"><text x="0px" y="0px" style="font-family:'SegoeUI', 'Segoe UI', sans-serif;font-size:17px;fill:#fff;">D</text><text x="12.003px" y="0px" style="font-family:'SegoeUI', 'Segoe UI', sans-serif;font-size:17px;fill:#fff;">e</text><text x="21.002px" y="0px" style="font-family:'SegoeUI', 'Segoe UI', sans-serif;font-size:17px;fill:#fff;">s</text><text x="28.007px" y="0px" style="font-family:'SegoeUI', 'Segoe UI', sans-serif;font-size:17px;fill:#fff;">i</text><text x="32.011px" y="0px" style="font-family:'SegoeUI', 'Segoe UI', sans-serif;font-size:17px;fill:#fff;">g</text><text x="42.008px" y="0px" style="font-family:'SegoeUI', 'Segoe UI', sans-serif;font-size:17px;fill:#fff;">n</text><text x="55.006px" y="0px" style="font-family:'SegoeUI', 'Segoe UI', sans-serif;font-size:17px;fill:#fff;">/</text><text x="65.998px" y="0px" style="font-family:'SegoeUI', 'Segoe UI', sans-serif;font-size:17px;fill:#fff;">B</text><text x="76.003px" y="0px" style="font-family:'SegoeUI', 'Segoe UI', sans-serif;font-size:17px;fill:#fff;">u</text><text x="86.001px" y="0px" style="font-family:'SegoeUI', 'Segoe UI', sans-serif;font-size:17px;fill:#fff;">i<tspan x="90.004px " y="0px ">l</tspan></text><text x="94.008px" y="0px" style="font-family:'SegoeUI', 'Segoe UI', sans-serif;font-size:17px;fill:#fff;">d</text></g><path d="M945.755,117.751c0,-26.223 21.313,-47.542 47.526,-47.542l130.695,0c26.287,0 47.525,21.319 47.525,47.542c0,26.296 -21.238,47.542 -47.525,47.542l-130.695,0c-26.213,0 -47.526,-21.246 -47.526,-47.542Z" style="fill:#189ff0;"/><g transform="matrix(1.18813,0,0,1.18855,971.464,125.36)"><text x="0px" y="0px" style="font-family:'SegoeUI', 'Segoe UI', sans-serif;font-size:17px;fill:#fff;">O</text><text x="12.998px" y="0px" style="font-family:'SegoeUI', 'Segoe UI', sans-serif;font-size:17px;fill:#fff;">p</text><text x="22.997px" y="0px" style="font-family:'SegoeUI', 'Segoe UI', sans-serif;font-size:17px;fill:#fff;">e</text><text x="31.996px" y="0px" style="font-family:'SegoeUI', 'Segoe UI', sans-serif;font-size:17px;fill:#fff;">r</text><text x="37.99px" y="0px" style="font-family:'SegoeUI', 'Segoe UI', sans-serif;font-size:17px;fill:#fff;">a</text><text x="46.986px" y="0px" style="font-family:'SegoeUI', 'Segoe UI', sans-serif;font-size:17px;fill:#fff;">t</text><text x="52.851px" y="0px" style="font-family:'SegoeUI', 'Segoe UI', sans-serif;font-size:17px;fill:#fff;">e</text><text x="64.849px" y="0px" style="font-family:'SegoeUI', 'Segoe UI', sans-serif;font-size:17px;fill:#fff;">&amp;</text><text x="81.853px" y="0px" style="font-family:'SegoeUI', 'Segoe UI', sans-serif;font-size:17px;fill:#fff;">M</text><text x="96.852px" y="0px" style="font-family:'SegoeUI', 'Segoe UI', sans-serif;font-size:17px;fill:#fff;">a</text><text x="105.848px" y="0px" style="font-family:'SegoeUI', 'Segoe UI', sans-serif;font-size:17px;fill:#fff;">i</text><text x="109.852px" y="0px" style="font-family:'SegoeUI', 'Segoe UI', sans-serif;font-size:17px;fill:#fff;">n</text><text x="119.85px" y="0px" style="font-family:'SegoeUI', 'Segoe UI', sans-serif;font-size:17px;fill:#fff;">t</text><text x="125.848px" y="0px" style="font-family:'SegoeUI', 'Segoe UI', sans-serif;font-size:17px;fill:#fff;">a</text><text x="134.844px" y="0px" style="font-family:'SegoeUI', 'Segoe UI', sans-serif;font-size:17px;fill:#fff;">i</text><text x="138.847px" y="0px" style="font-family:'SegoeUI', 'Segoe UI', sans-serif;font-size:17px;fill:#fff;">n</text></g><g transform="matrix(1.18813,0,0,1.18855,2.08856,20.2355)"><text x="0px" y="0px" style="font-family:'SegoeUI', 'Segoe UI', sans-serif;font-size:23px;fill:#9eb1b6;">P</text><text x="13.001px" y="0px" style="font-family:'SegoeUI', 'Segoe UI', sans-serif;font-size:23px;fill:#9eb1b6;">l</text><text x="19.006px" y="0px" style="font-family:'SegoeUI', 'Segoe UI', sans-serif;font-size:23px;fill:#9eb1b6;">a</text><text x="31.001px" y="0px" style="font-family:'SegoeUI', 'Segoe UI', sans-serif;font-size:23px;fill:#9eb1b6;">nn</text><text x="56.997px" y="0px" style="font-family:'SegoeUI', 'Segoe UI', sans-serif;font-size:23px;fill:#9eb1b6;">i</text><text x="63.001px" y="0px" style="font-family:'SegoeUI', 'Segoe UI', sans-serif;font-size:23px;fill:#9eb1b6;">n</text><text x="75.999px" y="0px" style="font-family:'SegoeUI', 'Segoe UI', sans-serif;font-size:23px;fill:#9eb1b6;">g</text><text x="95.995px" y="0px" style="font-family:'SegoeUI', 'Segoe UI', sans-serif;font-size:23px;fill:#9eb1b6;">S</text><text x="106.259px" y="0px" style="font-family:'SegoeUI', 'Segoe UI', sans-serif;font-size:23px;fill:#9eb1b6;">t</text><text x="114.256px" y="0px" style="font-family:'SegoeUI', 'Segoe UI', sans-serif;font-size:23px;fill:#9eb1b6;">a</text><text x="126.251px" y="0px" style="font-family:'SegoeUI', 'Segoe UI', sans-serif;font-size:23px;fill:#9eb1b6;">g</text><text x="140.248px" y="0px" style="font-family:'SegoeUI', 'Segoe UI', sans-serif;font-size:23px;fill:#9eb1b6;">e</text></g><g transform="matrix(1.18813,0,0,1.18855,623.401,20.2355)"><text x="0px" y="0px" style="font-family:'SegoeUI', 'Segoe UI', sans-serif;font-size:23px;fill:#9eb1b6;">I</text><text x="6.003px" y="0px" style="font-family:'SegoeUI', 'Segoe UI', sans-serif;font-size:23px;fill:#9eb1b6;">m</text><text x="26.01px" y="0px" style="font-family:'SegoeUI', 'Segoe UI', sans-serif;font-size:23px;fill:#9eb1b6;">p</text><text x="40.008px" y="0px" style="font-family:'SegoeUI', 'Segoe UI', sans-serif;font-size:23px;fill:#9eb1b6;">l</text><text x="46.012px" y="0px" style="font-family:'SegoeUI', 'Segoe UI', sans-serif;font-size:23px;fill:#9eb1b6;">e</text><text x="58.011px" y="0px" style="font-family:'SegoeUI', 'Segoe UI', sans-serif;font-size:23px;fill:#9eb1b6;">m</text><text x="78.018px" y="0px" style="font-family:'SegoeUI', 'Segoe UI', sans-serif;font-size:23px;fill:#9eb1b6;">e</text><text x="90.017px" y="0px" style="font-family:'SegoeUI', 'Segoe UI', sans-serif;font-size:23px;fill:#9eb1b6;">n</text><text x="103.015px" y="0px" style="font-family:'SegoeUI', 'Segoe UI', sans-serif;font-size:23px;fill:#9eb1b6;">t</text><text x="111.012px" y="0px" style="font-family:'SegoeUI', 'Segoe UI', sans-serif;font-size:23px;fill:#9eb1b6;">a</text><text x="123.007px" y="0px" style="font-family:'SegoeUI', 'Segoe UI', sans-serif;font-size:23px;fill:#9eb1b6;">t</text><text x="131.004px" y="0px" style="font-family:'SegoeUI', 'Segoe UI', sans-serif;font-size:23px;fill:#9eb1b6;">i</text><text x="137.009px" y="0px" style="font-family:'SegoeUI', 'Segoe UI', sans-serif;font-size:23px;fill:#9eb1b6;">o</text><text x="150.007px" y="0px" style="font-family:'SegoeUI', 'Segoe UI', sans-serif;font-size:23px;fill:#9eb1b6;">n</text><text x="170.004px" y="0px" style="font-family:'SegoeUI', 'Segoe UI', sans-serif;font-size:23px;fill:#9eb1b6;">a</text><text x="181.999px" y="0px" style="font-family:'SegoeUI', 'Segoe UI', sans-serif;font-size:23px;fill:#9eb1b6;">n</text><text x="194.997px" y="0px" style="font-family:'SegoeUI', 'Segoe UI', sans-serif;font-size:23px;fill:#9eb1b6;">d</text><text x="214.992px" y="0px" style="font-family:'SegoeUI', 'Segoe UI', sans-serif;font-size:23px;fill:#9eb1b6;">M</text><text x="235.991px" y="0px" style="font-family:'SegoeUI', 'Segoe UI', sans-serif;font-size:23px;fill:#9eb1b6;">a</text><text x="247.986px" y="0px" style="font-family:'SegoeUI', 'Segoe UI', sans-serif;font-size:23px;fill:#9eb1b6;">i</text><text x="253.99px" y="0px" style="font-family:'SegoeUI', 'Segoe UI', sans-serif;font-size:23px;fill:#9eb1b6;">n</text><text x="266.988px" y="0px" style="font-family:'SegoeUI', 'Segoe UI', sans-serif;font-size:23px;fill:#9eb1b6;">t</text><text x="274.806px" y="0px" style="font-family:'SegoeUI', 'Segoe UI', sans-serif;font-size:23px;fill:#9eb1b6;">e</text><text x="286.805px" y="0px" style="font-family:'SegoeUI', 'Segoe UI', sans-serif;font-size:23px;fill:#9eb1b6;">n</text><text x="299.803px" y="0px" style="font-family:'SegoeUI', 'Segoe UI', sans-serif;font-size:23px;fill:#9eb1b6;">a</text><text x="311.798px" y="0px" style="font-family:'SegoeUI', 'Segoe UI', sans-serif;font-size:23px;fill:#9eb1b6;">n</text><text x="324.796px" y="0px" style="font-family:'SegoeUI', 'Segoe UI', sans-serif;font-size:23px;fill:#9eb1b6;">c</text><text x="335.794px" y="0px" style="font-family:'SegoeUI', 'Segoe UI', sans-serif;font-size:23px;fill:#9eb1b6;">e</text><text x="353.791px" y="0px" style="font-family:'SegoeUI', 'Segoe UI', sans-serif;font-size:23px;fill:#9eb1b6;">S</text><text x="364.056px" y="0px" style="font-family:'SegoeUI', 'Segoe UI', sans-serif;font-size:23px;fill:#9eb1b6;">t</text><text x="372.053px" y="0px" style="font-family:'SegoeUI', 'Segoe UI', sans-serif;font-size:23px;fill:#9eb1b6;">a</text><text x="384.048px" y="0px" style="font-family:'SegoeUI', 'Segoe UI', sans-serif;font-size:23px;fill:#9eb1b6;">g</text><text x="398.045px" y="0px" style="font-family:'SegoeUI', 'Segoe UI', sans-serif;font-size:23px;fill:#9eb1b6;">e</text></g><g transform="matrix(1.18813,0,0,1.18855,555.936,197.679)"><text x="0px" y="0px" style="font-family:'SegoeUI', 'Segoe UI', sans-serif;font-size:17px;fill:#a7a7a7;">C</text><text x="11.002px" y="0px" style="font-family:'SegoeUI', 'Segoe UI', sans-serif;font-size:17px;fill:#a7a7a7;">o</text><text x="21.001px" y="0px" style="font-family:'SegoeUI', 'Segoe UI', sans-serif;font-size:17px;fill:#a7a7a7;">m<tspan x="36.007px " y="0px ">m</tspan></text><text x="51.012px" y="0px" style="font-family:'SegoeUI', 'Segoe UI', sans-serif;font-size:17px;fill:#a7a7a7;">u</text><text x="61.011px" y="0px" style="font-family:'SegoeUI', 'Segoe UI', sans-serif;font-size:17px;fill:#a7a7a7;">n</text><text x="71.01px" y="0px" style="font-family:'SegoeUI', 'Segoe UI', sans-serif;font-size:17px;fill:#a7a7a7;">i</text><text x="75.013px" y="0px" style="font-family:'SegoeUI', 'Segoe UI', sans-serif;font-size:17px;fill:#a7a7a7;">t</text><text x="80.011px" y="0px" style="font-family:'SegoeUI', 'Segoe UI', sans-serif;font-size:17px;fill:#a7a7a7;">y</text></g><g transform="matrix(1.18813,0,0,1.18855,555.936,221.45)"><text x="0px" y="0px" style="font-family:'SegoeUI', 'Segoe UI', sans-serif;font-size:17px;fill:#a7a7a7;">E</text><text x="8.998px" y="0px" style="font-family:'SegoeUI', 'Segoe UI', sans-serif;font-size:17px;fill:#a7a7a7;">n</text><text x="18.996px" y="0px" style="font-family:'SegoeUI', 'Segoe UI', sans-serif;font-size:17px;fill:#a7a7a7;">g</text><text x="28.994px" y="0px" style="font-family:'SegoeUI', 'Segoe UI', sans-serif;font-size:17px;fill:#a7a7a7;">a</text><text x="37.99px" y="0px" style="font-family:'SegoeUI', 'Segoe UI', sans-serif;font-size:17px;fill:#a7a7a7;">g</text><text x="47.988px" y="0px" style="font-family:'SegoeUI', 'Segoe UI', sans-serif;font-size:17px;fill:#a7a7a7;">e</text><text x="56.987px" y="0px" style="font-family:'SegoeUI', 'Segoe UI', sans-serif;font-size:17px;fill:#a7a7a7;">m</text><text x="71.993px" y="0px" style="font-family:'SegoeUI', 'Segoe UI', sans-serif;font-size:17px;fill:#a7a7a7;">e</text><text x="80.992px" y="0px" style="font-family:'SegoeUI', 'Segoe UI', sans-serif;font-size:17px;fill:#a7a7a7;">n</text><text x="89.991px" y="0px" style="font-family:'SegoeUI', 'Segoe UI', sans-serif;font-size:17px;fill:#a7a7a7;">t</text></g><path d="M539.413,207.56l-505.922,0l0,6.463l-26.362,-9.508l26.362,-9.509l0,6.537l505.922,0l0,6.017Z" style="fill:#a7a7a7;"/><path d="M720.01,198.349l418.595,0l0,-8.097l32.896,11.886l-32.896,11.885l0,-8.023l-418.595,0l0,-7.651Z" style="fill:#a7a7a7;"/></svg>