<?xml version="1.0" encoding="UTF-8" standalone="no"?><!DOCTYPE svg PUBLIC "-//W3C//DTD SVG 1.1//EN" "http://www.w3.org/Graphics/SVG/1.1/DTD/svg11.dtd"><svg width="100%" height="100%" viewBox="0 0 1170 197" version="1.1" xmlns="http://www.w3.org/2000/svg" xmlns:xlink="http://www.w3.org/1999/xlink" xml:space="preserve" style="fill-rule:evenodd;clip-rule:evenodd;stroke-linejoin:round;stroke-miterlimit:1.41421;"><path d="M195.246,89.778l99.598,0.964l-0.074,5.931l-99.598,-0.964l0.074,-5.931Zm2.816,11.936l-17.711,-9.119l17.934,-8.673l-0.223,17.792Zm93.892,-16.977l17.637,9.044l-17.859,8.748l0.222,-17.792Z" style="fill:#18a0f1;fill-rule:nonzero;stroke:#18a0f1;stroke-width:0.07px;"/><path d="M514.79,89.778l99.599,0.964l-0.075,5.931l-99.598,-0.964l0.074,-5.931Zm2.816,11.936l-17.711,-9.119l17.934,-8.673l-0.223,17.792Zm93.892,-16.977l17.638,9.044l-17.86,8.748l0.222,-17.792Z" style="fill:#18a0f1;fill-rule:nonzero;stroke:#18a0f1;stroke-width:0.07px;"/><path d="M828.299,89.778l94.855,0.964l-0.074,5.931l-94.856,-0.964l0.075,-5.931Zm2.816,11.936l-17.712,-9.119l17.934,-8.673l-0.222,17.792Zm89.149,-16.977l17.637,9.044l-17.859,8.748l0.222,-17.792Z" style="fill:#18a0f1;fill-rule:nonzero;stroke:#18a0f1;stroke-width:0.07px;"/><path d="M0.611,92.002c0,-26.168 21.268,-47.444 47.427,-47.444l133.984,0c26.233,0 47.428,21.276 47.428,47.444c0,26.243 -21.195,47.444 -47.428,47.444l-133.984,0c-26.159,0 -47.427,-21.201 -47.427,-47.444Z" style="fill:#189ff0;"/><g transform="matrix(1.18569,-2.46519e-32,0,1.1861,27.3381,87.7343)"><text x="0px" y="0px" style="font-family:'ArialMT', 'Arial', sans-serif;font-size:17px;fill:#fff;">P</text><text x="11px" y="0px" style="font-family:'ArialMT', 'Arial', sans-serif;font-size:17px;fill:#fff;">r</text><text x="17px" y="0px" style="font-family:'ArialMT', 'Arial', sans-serif;font-size:17px;fill:#fff;">o</text><text x="26.003px" y="0px" style="font-family:'ArialMT', 'Arial', sans-serif;font-size:17px;fill:#fff;">g</text><text x="35.005px" y="0px" style="font-family:'ArialMT', 'Arial', sans-serif;font-size:17px;fill:#fff;">r</text><text x="41.005px" y="0px" style="font-family:'ArialMT', 'Arial', sans-serif;font-size:17px;fill:#fff;">a</text><text x="50.008px" y="0px" style="font-family:'ArialMT', 'Arial', sans-serif;font-size:17px;fill:#fff;">m</text><text x="69.005px" y="0px" style="font-family:'ArialMT', 'Arial', sans-serif;font-size:17px;fill:#fff;">P</text><text x="79.892px" y="0px" style="font-family:'ArialMT', 'Arial', sans-serif;font-size:17px;fill:#fff;">l</text><text x="82.895px" y="0px" style="font-family:'ArialMT', 'Arial', sans-serif;font-size:17px;fill:#fff;">a<tspan x="91.897px 100.9px " y="0px 0px ">nn</tspan></text><text x="109.903px" y="0px" style="font-family:'ArialMT', 'Arial', sans-serif;font-size:17px;fill:#fff;">i</text><text x="113.906px" y="0px" style="font-family:'ArialMT', 'Arial', sans-serif;font-size:17px;fill:#fff;">n<tspan x="122.908px " y="0px ">g</tspan></text><text x="138.908px" y="0px" style="font-family:'ArialMT', 'Arial', sans-serif;font-size:17px;fill:#fff;">&amp;</text></g><g transform="matrix(1.18569,-2.46519e-32,0,1.1861,46.3092,111.456)"><text x="0px" y="0px" style="font-family:'ArialMT', 'Arial', sans-serif;font-size:17px;fill:#fff;">P</text><text x="10.887px" y="0px" style="font-family:'ArialMT', 'Arial', sans-serif;font-size:17px;fill:#fff;">r</text><text x="16.887px" y="0px" style="font-family:'ArialMT', 'Arial', sans-serif;font-size:17px;fill:#fff;">e</text><text x="25.89px" y="0px" style="font-family:'ArialMT', 'Arial', sans-serif;font-size:17px;fill:#fff;">d</text><text x="34.892px" y="0px" style="font-family:'ArialMT', 'Arial', sans-serif;font-size:17px;fill:#fff;">e</text><text x="43.895px" y="0px" style="font-family:'ArialMT', 'Arial', sans-serif;font-size:17px;fill:#fff;">v</text><text x="50.895px" y="0px" style="font-family:'ArialMT', 'Arial', sans-serif;font-size:17px;fill:#fff;">e</text><text x="59.897px" y="0px" style="font-family:'ArialMT', 'Arial', sans-serif;font-size:17px;fill:#fff;">l</text><text x="62.9px" y="0px" style="font-family:'ArialMT', 'Arial', sans-serif;font-size:17px;fill:#fff;">o</text><text x="71.903px" y="0px" style="font-family:'ArialMT', 'Arial', sans-serif;font-size:17px;fill:#fff;">p</text><text x="80.905px" y="0px" style="font-family:'ArialMT', 'Arial', sans-serif;font-size:17px;fill:#fff;">m</text><text x="93.906px" y="0px" style="font-family:'ArialMT', 'Arial', sans-serif;font-size:17px;fill:#fff;">e</text><text x="102.908px" y="0px" style="font-family:'ArialMT', 'Arial', sans-serif;font-size:17px;fill:#fff;">n</text><text x="112.911px" y="0px" style="font-family:'ArialMT', 'Arial', sans-serif;font-size:17px;fill:#fff;">t</text></g><path d="M316.4,92.002c0,-26.168 21.269,-47.444 47.428,-47.444l136.355,0c26.233,0 47.427,21.276 47.427,47.444c0,26.243 -21.194,47.444 -47.427,47.444l-136.355,0c-26.159,0 -47.428,-21.201 -47.428,-47.444Z" style="fill:#189ff0;"/><g transform="matrix(1.18569,-2.46519e-32,0,1.1861,379.031,87.7344)"><text x="0px" y="0px" style="font-family:'ArialMT', 'Arial', sans-serif;font-size:17px;fill:#fff;">F</text><text x="9.997px" y="0px" style="font-family:'ArialMT', 'Arial', sans-serif;font-size:17px;fill:#fff;">i</text><text x="14px" y="0px" style="font-family:'ArialMT', 'Arial', sans-serif;font-size:17px;fill:#fff;">n<tspan x="23.003px 32.005px " y="0px 0px ">an</tspan></text><text x="41.008px" y="0px" style="font-family:'ArialMT', 'Arial', sans-serif;font-size:17px;fill:#fff;">c</text><text x="50.008px" y="0px" style="font-family:'ArialMT', 'Arial', sans-serif;font-size:17px;fill:#fff;">i</text><text x="54.011px" y="0px" style="font-family:'ArialMT', 'Arial', sans-serif;font-size:17px;fill:#fff;">n<tspan x="63.013px " y="0px ">g</tspan></text><text x="77.013px" y="0px" style="font-family:'ArialMT', 'Arial', sans-serif;font-size:17px;fill:#fff;">&amp;</text></g><g transform="matrix(1.18569,-2.46519e-32,0,1.1861,381.402,111.457)"><text x="0px" y="0px" style="font-family:'ArialMT', 'Arial', sans-serif;font-size:17px;fill:#fff;">C</text><text x="12.003px" y="0px" style="font-family:'ArialMT', 'Arial', sans-serif;font-size:17px;fill:#fff;">o</text><text x="21.005px" y="0px" style="font-family:'ArialMT', 'Arial', sans-serif;font-size:17px;fill:#fff;">n</text><text x="30.008px" y="0px" style="font-family:'ArialMT', 'Arial', sans-serif;font-size:17px;fill:#fff;">t</text><text x="34.005px" y="0px" style="font-family:'ArialMT', 'Arial', sans-serif;font-size:17px;fill:#fff;">r</text><text x="40.005px" y="0px" style="font-family:'ArialMT', 'Arial', sans-serif;font-size:17px;fill:#fff;">a</text><text x="49.008px" y="0px" style="font-family:'ArialMT', 'Arial', sans-serif;font-size:17px;fill:#fff;">c</text><text x="58.008px" y="0px" style="font-family:'ArialMT', 'Arial', sans-serif;font-size:17px;fill:#fff;">t</text><text x="62.005px" y="0px" style="font-family:'ArialMT', 'Arial', sans-serif;font-size:17px;fill:#fff;">i</text><text x="66.008px" y="0px" style="font-family:'ArialMT', 'Arial', sans-serif;font-size:17px;fill:#fff;">n<tspan x="75.01px " y="0px ">g</tspan></text></g><path d="M634.561,92.002c0,-26.168 21.269,-47.444 47.428,-47.444l128.055,0c26.233,0 47.428,21.276 47.428,47.444c0,26.243 -21.195,47.444 -47.428,47.444l-128.055,0c-26.159,0 -47.428,-21.201 -47.428,-47.444Z" style="fill:#189ff0;"/><g transform="matrix(1.18569,-2.46519e-32,0,1.1861,685.22,99.5955)"><text x="0px" y="0px" style="font-family:'ArialMT', 'Arial', sans-serif;font-size:17px;fill:#fff;">D</text><text x="12.003px" y="0px" style="font-family:'ArialMT', 'Arial', sans-serif;font-size:17px;fill:#fff;">e</text><text x="21.005px" y="0px" style="font-family:'ArialMT', 'Arial', sans-serif;font-size:17px;fill:#fff;">s</text><text x="29.005px" y="0px" style="font-family:'ArialMT', 'Arial', sans-serif;font-size:17px;fill:#fff;">i</text><text x="33.008px" y="0px" style="font-family:'ArialMT', 'Arial', sans-serif;font-size:17px;fill:#fff;">g<tspan x="42.011px " y="0px ">n</tspan></text><text x="57.011px" y="0px" style="font-family:'ArialMT', 'Arial', sans-serif;font-size:17px;fill:#fff;">/</text><text x="66.005px" y="0px" style="font-family:'ArialMT', 'Arial', sans-serif;font-size:17px;fill:#fff;">B</text><text x="77.005px" y="0px" style="font-family:'ArialMT', 'Arial', sans-serif;font-size:17px;fill:#fff;">u</text><text x="86.007px" y="0px" style="font-family:'ArialMT', 'Arial', sans-serif;font-size:17px;fill:#fff;">i</text><text x="90.01px" y="0px" style="font-family:'ArialMT', 'Arial', sans-serif;font-size:17px;fill:#fff;">l</text><text x="93.013px" y="0px" style="font-family:'ArialMT', 'Arial', sans-serif;font-size:17px;fill:#fff;">d</text></g><path d="M944.422,92.002c0,-26.168 21.269,-47.444 47.428,-47.444l130.426,0c26.234,0 47.428,21.276 47.428,47.444c0,26.243 -21.194,47.444 -47.428,47.444l-130.426,0c-26.159,0 -47.428,-21.201 -47.428,-47.444Z" style="fill:#189ff0;"/><g transform="matrix(1.18569,-2.46519e-32,0,1.1861,973.67,99.5955)"><text x="0px" y="0px" style="font-family:'ArialMT', 'Arial', sans-serif;font-size:17px;fill:#fff;">O</text><text x="11.997px" y="0px" style="font-family:'ArialMT', 'Arial', sans-serif;font-size:17px;fill:#fff;">p</text><text x="21px" y="0px" style="font-family:'ArialMT', 'Arial', sans-serif;font-size:17px;fill:#fff;">e</text><text x="30.002px" y="0px" style="font-family:'ArialMT', 'Arial', sans-serif;font-size:17px;fill:#fff;">r</text><text x="36.002px" y="0px" style="font-family:'ArialMT', 'Arial', sans-serif;font-size:17px;fill:#fff;">a</text><text x="45.005px" y="0px" style="font-family:'ArialMT', 'Arial', sans-serif;font-size:17px;fill:#fff;">t</text><text x="49.002px" y="0px" style="font-family:'ArialMT', 'Arial', sans-serif;font-size:17px;fill:#fff;">e</text><text x="65.002px" y="0px" style="font-family:'ArialMT', 'Arial', sans-serif;font-size:17px;fill:#fff;">&amp;</text><text x="80.999px" y="0px" style="font-family:'ArialMT', 'Arial', sans-serif;font-size:17px;fill:#fff;">M</text><text x="93.999px" y="0px" style="font-family:'ArialMT', 'Arial', sans-serif;font-size:17px;fill:#fff;">a</text><text x="103.002px" y="0px" style="font-family:'ArialMT', 'Arial', sans-serif;font-size:17px;fill:#fff;">i</text><text x="107.005px" y="0px" style="font-family:'ArialMT', 'Arial', sans-serif;font-size:17px;fill:#fff;">n</text><text x="116.007px" y="0px" style="font-family:'ArialMT', 'Arial', sans-serif;font-size:17px;fill:#fff;">t</text><text x="120.004px" y="0px" style="font-family:'ArialMT', 'Arial', sans-serif;font-size:17px;fill:#fff;">a</text><text x="129.007px" y="0px" style="font-family:'ArialMT', 'Arial', sans-serif;font-size:17px;fill:#fff;">i</text><text x="133.01px" y="0px" style="font-family:'ArialMT', 'Arial', sans-serif;font-size:17px;fill:#fff;">n</text></g><path d="M719.141,172.435l417.734,0l0,-8.08l32.829,11.861l-32.829,11.861l0,-8.006l-417.734,0l0,-7.636Z" style="fill:#a7a7a7;"/><path d="M450.563,179.996l-417.734,0l0,8.081l-32.829,-11.861l32.829,-11.861l0,8.006l417.734,0l0,7.635Z" style="fill:#a7a7a7;"/><text x="632.017px" y="20.385px" style="font-family:'ArialMT', 'Arial', sans-serif;font-size:28px;fill:#9eb1b6;">Implementation and Maintenance Stage</text><text x="-2.16px" y="20.385px" style="font-family:'ArialMT', 'Arial', sans-serif;font-size:28px;fill:#9eb1b6;">Planning Stage</text><g transform="matrix(1,0,0,1,-18.0071,-111.04)"><text x="553.23px" y="282.806px" style="font-family:'ArialMT', 'Arial', sans-serif;font-size:20px;fill:#a7a7a7;">Community</text><text x="547.088px" y="303.46px" style="font-family:'ArialMT', 'Arial', sans-serif;font-size:20px;fill:#a7a7a7;">Engagement</text></g></svg>