<?xml version="1.0" encoding="UTF-8" standalone="no"?><!DOCTYPE svg PUBLIC "-//W3C//DTD SVG 1.1//EN" "http://www.w3.org/Graphics/SVG/1.1/DTD/svg11.dtd"><svg width="100%" height="100%" viewBox="0 0 543 543" version="1.1" xmlns="http://www.w3.org/2000/svg" xmlns:xlink="http://www.w3.org/1999/xlink" xml:space="preserve" xmlns:serif="http://www.serif.com/" style="fill-rule:evenodd;clip-rule:evenodd;stroke-linejoin:round;stroke-miterlimit:10;"><g><path d="M463.378,79.459c-105.946,-105.945 -277.974,-105.945 -383.919,0c-105.945,105.945 -105.945,277.973 0,383.919c105.945,105.945 277.973,105.945 383.919,0c105.945,-105.945 105.945,-277.974 0,-383.919Z" style="fill:#1baf44;"/><g><clipPath id="_clip1"><rect x="93.844" y="124.239" width="340.167" height="276.417" clip-rule="nonzero"/></clipPath><g clip-path="url(#_clip1)"><path d="M268.752,294.008l-53.334,-16l-42.666,-64l0,-21.333l256,0l0,21.333l-42.667,58.667" style="fill:none;stroke:#fff;stroke-width:10.67px;"/><path d="M396.752,336.675c0,-32.379 -26.288,-58.667 -58.667,-58.667c-32.379,0 -58.667,26.288 -58.667,58.667c0,32.379 26.288,58.666 58.667,58.666c32.379,0 58.667,-26.287 58.667,-58.666Z" style="fill:none;stroke:#fff;stroke-width:10.67px;"/><path d="M92.752,214.008l48,0l58.666,85.333l138.667,37.334" style="fill:none;stroke:#fff;stroke-width:10.67px;"/><path d="M199.418,299.341l0,58.667c0,8.832 7.168,16 16,16l5.334,0l42.666,-37.333" style="fill:none;stroke:#fff;stroke-width:10.67px;"/><path d="M92.752,395.341l341.333,0" style="fill:none;stroke:#fff;stroke-width:10.67px;"/><path d="M343.418,336.675c0,-2.944 -2.39,-5.334 -5.333,-5.334c-2.944,0 -5.333,2.39 -5.333,5.334c0,2.943 2.389,5.333 5.333,5.333c2.943,0 5.333,-2.39 5.333,-5.333Z" style="fill:none;stroke:#fff;stroke-width:10.67px;"/><path d="M364.752,336.675c0,-14.718 -11.949,-26.667 -26.667,-26.667c-14.718,0 -26.667,11.949 -26.667,26.667c0,14.717 11.949,26.666 26.667,26.666c14.718,0 26.667,-11.949 26.667,-26.666Z" style="fill:none;stroke:#fff;stroke-width:10.67px;"/><path d="M172.752,214.008l256,0" style="fill:none;stroke:#fff;stroke-width:10.67px;"/><path d="M210.085,176.675l48,-48l48,0l32,32l32,0l32,32" style="fill:none;stroke:#fff;stroke-width:10.67px;"/><path d="M226.085,160.675l42.667,0" style="fill:none;stroke:#fff;stroke-width:10.67px;"/><path d="M279.418,160.675l10.667,0" style="fill:none;stroke:#fff;stroke-width:10.67px;"/></g></g></g></svg>