<?xml version="1.0" encoding="UTF-8" standalone="no"?><!DOCTYPE svg PUBLIC "-//W3C//DTD SVG 1.1//EN" "http://www.w3.org/Graphics/SVG/1.1/DTD/svg11.dtd"><svg width="100%" height="100%" viewBox="0 0 543 543" version="1.1" xmlns="http://www.w3.org/2000/svg" xmlns:xlink="http://www.w3.org/1999/xlink" xml:space="preserve" xmlns:serif="http://www.serif.com/" style="fill-rule:evenodd;clip-rule:evenodd;stroke-miterlimit:10;"><g><path d="M463.378,79.459c-105.946,-105.945 -277.974,-105.945 -383.919,0c-105.945,105.945 -105.945,277.973 0,383.919c105.945,105.945 277.973,105.945 383.919,0c105.945,-105.945 105.945,-277.974 0,-383.919Z" style="fill:#1baf44;"/><g><clipPath id="_clip1"><rect x="124.752" y="123.617" width="293.333" height="295.603" clip-rule="nonzero"/></clipPath><g clip-path="url(#_clip1)"><path d="M326.418,155.716l41.25,0l32.084,64.75" style="fill:none;stroke:#fff;stroke-width:9.21px;"/><path d="M143.085,220.466l32.083,-64.75l41.25,0" style="fill:none;stroke:#fff;stroke-width:9.21px;"/><path d="M202.668,197.341c0,-38.313 30.782,-69.375 68.75,-69.375c37.969,0 68.75,31.062 68.75,69.375" style="fill:none;stroke:#fff;stroke-width:9.21px;"/><path d="M418.085,220.466l-293.333,0" style="fill:none;stroke:#fff;stroke-width:9.21px;stroke-linejoin:round;"/><path d="M161.418,359.216l0,-87.875" style="fill:none;stroke:#fff;stroke-width:9.21px;"/><path d="M188.918,271.341l0,87.875" style="fill:none;stroke:#fff;stroke-width:9.21px;"/><rect x="152.252" y="238.966" width="45.833" height="18.5" style="fill:none;stroke:#fff;stroke-width:9.21px;"/><rect x="152.252" y="359.216" width="45.833" height="18.5" style="fill:none;stroke:#fff;stroke-width:9.21px;"/><path d="M225.585,359.216l0,-87.875" style="fill:none;stroke:#fff;stroke-width:9.21px;"/><path d="M253.085,271.341l0,87.875" style="fill:none;stroke:#fff;stroke-width:9.21px;"/><rect x="216.418" y="238.966" width="45.833" height="18.5" style="fill:none;stroke:#fff;stroke-width:9.21px;"/><rect x="216.418" y="359.216" width="45.833" height="18.5" style="fill:none;stroke:#fff;stroke-width:9.21px;"/><path d="M289.752,359.216l0,-87.875" style="fill:none;stroke:#fff;stroke-width:9.21px;"/><path d="M317.252,271.341l0,87.875" style="fill:none;stroke:#fff;stroke-width:9.21px;"/><rect x="280.585" y="238.966" width="45.833" height="18.5" style="fill:none;stroke:#fff;stroke-width:9.21px;"/><rect x="280.585" y="359.216" width="45.833" height="18.5" style="fill:none;stroke:#fff;stroke-width:9.21px;"/><path d="M353.918,359.216l0,-87.875" style="fill:none;stroke:#fff;stroke-width:9.21px;"/><path d="M381.418,271.341l0,87.875" style="fill:none;stroke:#fff;stroke-width:9.21px;"/><rect x="344.752" y="238.966" width="45.833" height="18.5" style="fill:none;stroke:#fff;stroke-width:9.21px;"/><rect x="344.752" y="359.216" width="45.833" height="18.5" style="fill:none;stroke:#fff;stroke-width:9.21px;"/><path d="M418.085,238.966l-293.333,0" style="fill:none;stroke:#fff;stroke-width:9.21px;"/><path d="M138.502,377.716l265.833,0" style="fill:none;stroke:#fff;stroke-width:9.21px;"/><path d="M289.752,174.216c0,-10.21 -8.215,-18.5 -18.334,-18.5c-10.118,0 -18.333,8.29 -18.333,18.5c0,10.211 8.215,18.5 18.333,18.5c10.119,0 18.334,-8.289 18.334,-18.5Z" style="fill:none;stroke:#fff;stroke-width:9.21px;"/><path d="M303.501,174.216l9.167,0" style="fill:none;stroke:#fff;stroke-width:9.21px;"/><path d="M239.335,174.216l-9.167,0" style="fill:none;stroke:#fff;stroke-width:9.21px;"/><rect x="129.335" y="396.216" width="284.167" height="18.5" style="fill:none;stroke:#fff;stroke-width:9.21px;"/></g></g></g></svg>