<?xml version="1.0" encoding="UTF-8" standalone="no"?><!DOCTYPE svg PUBLIC "-//W3C//DTD SVG 1.1//EN" "http://www.w3.org/Graphics/SVG/1.1/DTD/svg11.dtd"><svg width="100%" height="100%" viewBox="0 0 109 109" version="1.1" xmlns="http://www.w3.org/2000/svg" xmlns:xlink="http://www.w3.org/1999/xlink" xml:space="preserve" style="fill-rule:evenodd;clip-rule:evenodd;"><path d="M92.7,15.9c21.2,21.2 21.2,55.6 0,76.8c-21.2,21.2 -55.6,21.2 -76.8,0c-21.2,-21.2 -21.2,-55.6 0,-76.8c21.2,-21.2 55.6,-21.2 76.8,0Z" style="fill:#20b046;fill-rule:nonzero;"/><clipPath id="_clip1"><path d="M21.9,86.8l65,0l0,-65l-65,0l0,65Z"/></clipPath><g clip-path="url(#_clip1)"><path d="M54.4,61.4l0,-30.6" style="fill:none;stroke:#fff;stroke-width:2.04px;"/></g><g><clipPath id="_clip2"><path d="M21.9,86.8l65,0l0,-65l-65,0l0,65Z"/></clipPath><g clip-path="url(#_clip2)"><path d="M54.4,85.8l0,-20.4" style="fill:none;stroke:#fff;stroke-width:2.04px;"/><path d="M58.5,26.9c0,2.244 -1.836,4.08 -4.08,4.08c-2.244,0 -4.08,-1.836 -4.08,-4.08c0,-2.244 1.836,-4.08 4.08,-4.08c2.244,0 4.08,1.836 4.08,4.08Z" style="fill:none;stroke:#fff;stroke-width:2.04px;"/><path d="M54.4,75.6c2.04,1.02 5.1,2.244 5.1,5.1c0,2.856 -2.244,5.1 -5.1,5.1c-2.856,0 -5.1,-2.244 -5.1,-5.1c0,-1.122 0.408,-2.244 1.02,-3.06" style="fill:none;stroke:#fff;stroke-width:2.04px;"/><path d="M54.4,75.6c-2.04,-1.02 -7.14,-3.06 -7.14,-7.14c0,-2.55 2.04,-3.876 4.08,-5.1" style="fill:none;stroke:#fff;stroke-width:2.04px;"/><path d="M58.5,73.6c2.04,-1.02 3.06,-2.754 3.06,-5.1c0,-3.978 -5.1,-6.12 -7.14,-7.14" style="fill:none;stroke:#fff;stroke-width:2.04px;"/><path d="M57.4,47.2c2.04,0 5.1,2.04 5.1,6.12c0,4.488 -6.12,7.14 -8.16,8.16c-2.04,-1.02 -8.16,-3.672 -8.16,-8.16c0,-4.08 3.06,-6.12 5.1,-6.12" style="fill:none;stroke:#fff;stroke-width:2.04px;"/><path d="M51.4,43.1l-4.08,0c-14.28,0 -22.44,-5.1 -24.48,-11.22c14.28,0 14.28,-5.1 19.38,-5.1c2.04,0 4.08,1.836 4.08,4.08l0,3.06c0,1.734 1.326,3.06 3.06,3.06l2.04,0" style="fill:none;stroke:#fff;stroke-width:2.04px;stroke-linejoin:round;"/><path d="M44.2,43.1l0,-4.08" style="fill:none;stroke:#fff;stroke-width:2.04px;"/><path d="M40.2,43.1l0,-5.1" style="fill:none;stroke:#fff;stroke-width:2.04px;"/><path d="M36.1,42.1l0,-5.1" style="fill:none;stroke:#fff;stroke-width:2.04px;"/><path d="M32.1,40.1l0,-4.08" style="fill:none;stroke:#fff;stroke-width:2.04px;"/><path d="M57.4,43.1l4.08,0c14.28,0 22.44,-5.1 24.48,-11.22c-14.28,0 -14.28,-5.1 -19.38,-5.1c-2.04,0 -4.08,1.836 -4.08,4.08l0,3.06c0,1.734 -1.326,3.06 -3.06,3.06l-2.04,0" style="fill:none;stroke:#fff;stroke-width:2.04px;stroke-linejoin:round;"/><path d="M64.6,43.1l0,-4.08" style="fill:none;stroke:#fff;stroke-width:2.04px;"/><path d="M68.6,43.1l0,-5.1" style="fill:none;stroke:#fff;stroke-width:2.04px;"/><path d="M72.7,42.1l0,-5.1" style="fill:none;stroke:#fff;stroke-width:2.04px;"/><path d="M76.7,40.1l0,-4.08" style="fill:none;stroke:#fff;stroke-width:2.04px;"/></g></g></svg>