<?xml version="1.0" encoding="UTF-8" standalone="no"?><!DOCTYPE svg PUBLIC "-//W3C//DTD SVG 1.1//EN" "http://www.w3.org/Graphics/SVG/1.1/DTD/svg11.dtd"><svg width="100%" height="100%" viewBox="0 0 109 109" version="1.1" xmlns="http://www.w3.org/2000/svg" xmlns:xlink="http://www.w3.org/1999/xlink" xml:space="preserve" style="fill-rule:evenodd;clip-rule:evenodd;stroke-linejoin:round;"><path d="M92.7,15.9c21.2,21.2 21.2,55.6 0,76.8c-21.2,21.2 -55.6,21.2 -76.8,0c-21.2,-21.2 -21.2,-55.6 0,-76.8c21.2,-21.2 55.6,-21.2 76.8,0Z" style="fill:#20b046;fill-rule:nonzero;"/><g><clipPath id="_clip1"><path d="M25.3,86.8l56,0l0,-65l-56,0l0,65Z"/></clipPath><g clip-path="url(#_clip1)"><path d="M62.3,32c0,5.1 -4,9.18 -9,9.18c-5,0 -9,-4.08 -9,-9.18c0,-5.1 4,-9.18 9,-9.18c5,0 9,4.08 9,9.18Z" style="fill:none;stroke:#fff;stroke-width:2.02px;"/><path d="M62.3,29.9l10,3.06l0,53.04l-38,0l0,-53.04l10,-3.06" style="fill:none;stroke:#fff;stroke-width:2.02px;"/><path d="M31.3,75.6l-5,0l0,-34.68l8,-8.16" style="fill:none;stroke:#fff;stroke-width:2.02px;"/><path d="M26.3,69.5l5,0" style="fill:none;stroke:#fff;stroke-width:2.02px;"/><path d="M75.3,75.6l5,0l0,-34.68l-8,-8.16" style="fill:none;stroke:#fff;stroke-width:2.02px;"/><path d="M80.3,69.5l-5,0" style="fill:none;stroke:#fff;stroke-width:2.02px;"/><path d="M53.3,41.1l-8,8.16l-1,0l0,-17.34" style="fill:none;stroke:#fff;stroke-width:2.02px;"/><path d="M53.3,41.1l8,8.16l1,0l0,-17.34" style="fill:none;stroke:#fff;stroke-width:2.02px;"/><path d="M56.3,47.2l0,25.5l-3,3.06l-3,-3.06l0,-25.5" style="fill:none;stroke:#fff;stroke-width:2.02px;"/><path d="M53.3,78.7l0,7.14" style="fill:none;stroke:#fff;stroke-width:2.02px;"/><path d="M58.3,46.1c-1.3,1.326 -3,2.142 -5,2.142c-2,0 -3.7,-0.816 -5,-2.142" style="fill:none;stroke:#fff;stroke-width:2.02px;"/><path d="M50.3,28.9l6,0" style="fill:none;stroke:#fff;stroke-width:2.02px;"/></g></g></svg>