<?xml version="1.0" encoding="UTF-8" standalone="no"?><!DOCTYPE svg PUBLIC "-//W3C//DTD SVG 1.1//EN" "http://www.w3.org/Graphics/SVG/1.1/DTD/svg11.dtd"><svg width="100%" height="100%" viewBox="0 0 109 109" version="1.1" xmlns="http://www.w3.org/2000/svg" xmlns:xlink="http://www.w3.org/1999/xlink" xml:space="preserve" style="fill-rule:evenodd;clip-rule:evenodd;stroke-linejoin:round;"><path d="M92.7,15.9c21.2,21.2 21.2,55.6 0,76.8c-21.2,21.2 -55.6,21.2 -76.8,0c-21.2,-21.2 -21.2,-55.6 0,-76.8c21.2,-21.2 55.6,-21.2 76.8,0Z" style="fill:#20b046;fill-rule:nonzero;"/><g><clipPath id="_clip1"><path d="M32.9,85.2l43,0l0,-62l-43,0l0,62Z"/></clipPath><g clip-path="url(#_clip1)"><path d="M74.9,44.5c0,13.58 -20.58,39.77 -20.58,39.77c0,0 -20.58,-26.19 -20.58,-39.77c0,-11.252 9.212,-20.37 20.58,-20.37c11.368,0 20.58,9.118 20.58,20.37Z" style="fill:none;stroke:#fff;stroke-width:1.95px;"/><path d="M69.1,44.5c0,8.051 -6.566,14.55 -14.7,14.55c-8.134,0 -14.7,-6.499 -14.7,-14.55c0,-8.051 6.566,-14.55 14.7,-14.55c8.134,0 14.7,6.499 14.7,14.55Z" style="fill:none;stroke:#fff;stroke-width:1.95px;"/><path d="M54.4,44.5c1.96,0.97 3.92,1.746 3.92,3.88c0,2.134 -1.764,3.88 -3.92,3.88c-2.156,0 -3.92,-1.746 -3.92,-3.88" style="fill:none;stroke:#fff;stroke-width:1.95px;stroke-linejoin:miter;"/><path d="M54.4,44.5c-1.96,-0.97 -3.92,-1.746 -3.92,-3.88c0,-2.134 1.764,-3.88 3.92,-3.88c2.156,0 3.92,1.746 3.92,3.88" style="fill:none;stroke:#fff;stroke-width:1.95px;stroke-linejoin:miter;"/><path d="M54.4,36.8l0,-2.91" style="fill:none;stroke:#fff;stroke-width:1.95px;stroke-linejoin:miter;"/><path d="M54.4,52.3l0,2.91" style="fill:none;stroke:#fff;stroke-width:1.95px;stroke-linejoin:miter;"/><path d="M53.4,73.6l1.96,0" style="fill:none;stroke:#fff;stroke-width:1.95px;"/><path d="M53.4,69.7l1.96,0" style="fill:none;stroke:#fff;stroke-width:1.95px;"/><path d="M53.4,65.8l1.96,0" style="fill:none;stroke:#fff;stroke-width:1.95px;"/><path d="M58.3,84.2l17.64,0" style="fill:none;stroke:#fff;stroke-width:1.95px;"/><path d="M32.9,84.2l17.64,0" style="fill:none;stroke:#fff;stroke-width:1.95px;"/></g></g></svg>