<?xml version="1.0" encoding="UTF-8" standalone="no"?><!DOCTYPE svg PUBLIC "-//W3C//DTD SVG 1.1//EN" "http://www.w3.org/Graphics/SVG/1.1/DTD/svg11.dtd"><svg width="100%" height="100%" viewBox="0 0 109 109" version="1.1" xmlns="http://www.w3.org/2000/svg" xmlns:xlink="http://www.w3.org/1999/xlink" xml:space="preserve" style="fill-rule:evenodd;clip-rule:evenodd;"><path d="M92.7,15.9c21.2,21.2 21.2,55.6 0,76.8c-21.2,21.2 -55.6,21.2 -76.8,0c-21.2,-21.2 -21.2,-55.6 0,-76.8c21.2,-21.2 55.6,-21.2 76.8,0Z" style="fill:#20b046;fill-rule:nonzero;"/><clipPath id="_clip1"><path d="M26.3,84.2l60,0l0,-60l-60,0l0,60Z"/></clipPath><g clip-path="url(#_clip1)"><path d="M35.7,54.2l1.88,0" style="fill:none;stroke:#fff;stroke-width:1.88px;"/></g><g><clipPath id="_clip2"><path d="M26.3,84.2l60,0l0,-60l-60,0l0,60Z"/></clipPath><g clip-path="url(#_clip2)"><path d="M32.9,28.9l0,-4.7" style="fill:none;stroke:#fff;stroke-width:1.88px;"/><path d="M46,44.8l0,12.22c0,0.564 -0.376,0.94 -0.94,0.94l-11.28,0c-0.564,0 -0.94,-0.376 -0.94,-0.94l0,-13.16" style="fill:none;stroke:#fff;stroke-width:1.88px;"/><path d="M46,24.2l0,5.64" style="fill:none;stroke:#fff;stroke-width:1.88px;"/><path d="M52.5,31.7l-1.88,0l-9.4,-2.82l-8.46,0c-1.034,0 -1.88,0.846 -1.88,1.88c0,1.034 0.846,1.88 1.88,1.88l-1.88,0c-1.034,0 -1.88,0.846 -1.88,1.88c0,1.034 0.846,1.88 1.88,1.88l-1.88,0c-1.034,0 -1.88,0.846 -1.88,1.88c0,1.034 0.846,1.88 1.88,1.88l1.88,0c-1.034,0 -1.88,0.846 -1.88,1.88c0,1.034 0.846,1.88 1.88,1.88l8.46,0" style="fill:none;stroke:#fff;stroke-width:1.88px;"/><path d="M31,40.1l5.64,0" style="fill:none;stroke:#fff;stroke-width:1.88px;"/><path d="M31,36.4l5.64,0" style="fill:none;stroke:#fff;stroke-width:1.88px;"/><path d="M32.9,32.6l3.76,0" style="fill:none;stroke:#fff;stroke-width:1.88px;"/><path d="M35.7,45.8c0,1.034 0.846,1.88 1.88,1.88l3.76,0l3.76,-1.88l3.76,-2.82l3.76,0" style="fill:none;stroke:#fff;stroke-width:1.88px;"/><path d="M56.3,33.6l0,1.88" style="fill:none;stroke:#fff;stroke-width:1.88px;"/><path d="M81.6,30.8l4.7,0" style="fill:none;stroke:#fff;stroke-width:1.88px;"/><path d="M65.7,43.9l-12.22,0c-0.564,0 -0.94,-0.376 -0.94,-0.94l0,-11.28c0,-0.564 0.376,-0.94 0.94,-0.94l13.16,0" style="fill:none;stroke:#fff;stroke-width:1.88px;"/><path d="M86.3,43.9l-5.64,0" style="fill:none;stroke:#fff;stroke-width:1.88px;"/><path d="M78.8,50.4l0,-1.88l2.82,-9.4l0,-8.46c0,-1.034 -0.846,-1.88 -1.88,-1.88c-1.034,0 -1.88,0.846 -1.88,1.88l0,-1.88c0,-1.034 -0.846,-1.88 -1.88,-1.88c-1.034,0 -1.88,0.846 -1.88,1.88l0,-1.88c0,-1.034 -0.846,-1.88 -1.88,-1.88c-1.034,0 -1.88,0.846 -1.88,1.88l0,1.88c0,-1.034 -0.846,-1.88 -1.88,-1.88c-1.034,0 -1.88,0.846 -1.88,1.88l0,8.46" style="fill:none;stroke:#fff;stroke-width:1.88px;"/><path d="M70.4,28.9l0,5.64" style="fill:none;stroke:#fff;stroke-width:1.88px;"/><path d="M74.1,28.9l0,5.64" style="fill:none;stroke:#fff;stroke-width:1.88px;"/><path d="M77.9,30.8l0,3.76" style="fill:none;stroke:#fff;stroke-width:1.88px;"/><path d="M64.7,33.6c-1.034,0 -1.88,0.846 -1.88,1.88l0,3.76l1.88,3.76l2.82,3.76l0,3.76" style="fill:none;stroke:#fff;stroke-width:1.88px;"/><path d="M75.1,54.2l1.88,0" style="fill:none;stroke:#fff;stroke-width:1.88px;"/><path d="M66.6,78.6l0,5.64" style="fill:none;stroke:#fff;stroke-width:1.88px;"/><path d="M79.7,62.6l0,-11.28c0,-0.564 -0.376,-0.94 -0.94,-0.94l-11.28,0c-0.564,0 -0.94,0.376 -0.94,0.94l0,12.22" style="fill:none;stroke:#fff;stroke-width:1.88px;"/><path d="M79.7,84.2l0,-6.58" style="fill:none;stroke:#fff;stroke-width:1.88px;"/><path d="M60.1,65.4l1.88,0l9.4,-2.82l8.46,0c1.034,0 1.88,0.846 1.88,1.88c0,1.034 -0.846,1.88 -1.88,1.88l1.88,0c1.034,0 1.88,0.846 1.88,1.88c0,1.034 -0.846,1.88 -1.88,1.88l1.88,0c1.034,0 1.88,0.846 1.88,1.88c0,1.034 -0.846,1.88 -1.88,1.88l-1.88,0c1.034,0 1.88,0.846 1.88,1.88c0,1.034 -0.846,1.88 -1.88,1.88l-8.46,0" style="fill:none;stroke:#fff;stroke-width:1.88px;"/><path d="M81.6,73.9l-5.64,0" style="fill:none;stroke:#fff;stroke-width:1.88px;"/><path d="M81.6,70.1l-5.64,0" style="fill:none;stroke:#fff;stroke-width:1.88px;"/><path d="M79.7,66.4l-3.76,0" style="fill:none;stroke:#fff;stroke-width:1.88px;"/><path d="M76.9,79.5c0,1.034 -0.846,1.88 -1.88,1.88l-3.76,0l-3.76,-1.88l-3.76,-2.82l-3.76,0" style="fill:none;stroke:#fff;stroke-width:1.88px;"/><path d="M56.3,67.3l0,1.88" style="fill:none;stroke:#fff;stroke-width:1.88px;"/><path d="M32.9,64.5l-6.58,0" style="fill:none;stroke:#fff;stroke-width:1.88px;"/><path d="M46,77.6l13.16,0c0.564,0 0.94,-0.376 0.94,-0.94l0,-11.28c0,-0.564 -0.376,-0.94 -0.94,-0.94l-12.22,0" style="fill:none;stroke:#fff;stroke-width:1.88px;"/><path d="M26.3,77.6l4.7,0" style="fill:none;stroke:#fff;stroke-width:1.88px;"/><path d="M33.8,58l0,1.88l-2.82,9.4l0,8.46c0,1.034 0.846,1.88 1.88,1.88c1.034,0 1.88,-0.846 1.88,-1.88l0,1.88c0,1.034 0.846,1.88 1.88,1.88c1.034,0 1.88,-0.846 1.88,-1.88l0,1.88c0,1.034 0.846,1.88 1.88,1.88c1.034,0 1.88,-0.846 1.88,-1.88l0,-1.88c0,1.034 0.846,1.88 1.88,1.88c1.034,0 1.88,-0.846 1.88,-1.88l0,-8.46" style="fill:none;stroke:#fff;stroke-width:1.88px;"/><path d="M42.2,79.5l0,-5.64" style="fill:none;stroke:#fff;stroke-width:1.88px;"/><path d="M38.5,79.5l0,-5.64" style="fill:none;stroke:#fff;stroke-width:1.88px;"/><path d="M34.7,77.6l0,-3.76" style="fill:none;stroke:#fff;stroke-width:1.88px;"/><path d="M47.9,74.8c1.034,0 1.88,-0.846 1.88,-1.88l0,-3.76l-1.88,-3.76l-2.82,-3.76l0,-3.76" style="fill:none;stroke:#fff;stroke-width:1.88px;"/><path d="M32.9,58l13.16,0" style="fill:none;stroke:#fff;stroke-width:1.88px;"/></g></g></svg>