<?xml version="1.0" encoding="UTF-8" standalone="no"?><!DOCTYPE svg PUBLIC "-//W3C//DTD SVG 1.1//EN" "http://www.w3.org/Graphics/SVG/1.1/DTD/svg11.dtd"><svg width="100%" height="100%" viewBox="0 0 109 109" version="1.1" xmlns="http://www.w3.org/2000/svg" xmlns:xlink="http://www.w3.org/1999/xlink" xml:space="preserve" style="fill-rule:evenodd;clip-rule:evenodd;stroke-linejoin:round;stroke-miterlimit:1.41421;"><path d="M92.7,15.9c21.2,21.2 21.2,55.6 0,76.8c-21.2,21.2 -55.6,21.2 -76.8,0c-21.2,-21.2 -21.2,-55.6 0,-76.8c21.2,-21.2 55.6,-21.2 76.8,0Z" style="fill:#20b046;fill-rule:nonzero;"/><g><clipPath id="_clip1"><path d="M26.6,74.8l56,0l0,-41l-56,0l0,41Z"/></clipPath><g clip-path="url(#_clip1)"><path d="M74.8,33.8c0.7,0.8 1.3,1.4 2,2.2c1.9,2.2 3.6,4.6 4.8,7.3c0.7,1.7 1.1,3.4 1,5.3c-0.2,3.4 -2.8,6.5 -6.1,7.3c-3.1,0.7 -6.4,-0.7 -8.1,-3.6c-1.5,-2.5 -1.6,-5.1 -0.7,-7.9c1,-2.7 2.6,-5.1 4.4,-7.4c0.9,-1 1.8,-2.1 2.7,-3.2" style="fill:#fff;fill-rule:nonzero;"/><path d="M54.6,52.6c2.6,2.8 5.1,5.8 6.7,9.3c0.7,1.8 1.2,3.6 1,5.5c-0.4,3.6 -2.9,6.6 -6.4,7.3c-2.9,0.5 -5.9,-0.8 -7.6,-3.4c-1.6,-2.3 -1.8,-4.9 -1,-7.6c0.7,-2.5 2.1,-4.8 3.7,-6.9c1.1,-1.3 2.3,-2.7 3.4,-4c0,-0.1 0.1,-0.1 0.2,-0.2" style="fill:#fff;fill-rule:nonzero;"/><path d="M34.3,36.2c2.6,2.7 4.9,5.5 6.5,8.8c0.8,1.7 1.3,3.4 1.3,5.3c-0.1,2.9 -1.3,5.3 -3.8,6.9c-3.5,2.3 -8.2,1.2 -10.4,-2.5c-1.5,-2.5 -1.6,-5.1 -0.7,-7.8c0.8,-2.6 2.2,-4.8 3.9,-6.9c0.9,-1.2 1.9,-2.3 2.9,-3.5c0.1,-0.1 0.2,-0.2 0.3,-0.3" style="fill:#fff;fill-rule:nonzero;"/></g></g></svg>