<?xml version="1.0" encoding="utf-8"?>
<!-- Generator: Adobe Illustrator 16.0.0, SVG Export Plug-In . SVG Version: 6.00 Build 0)  -->
<!DOCTYPE svg PUBLIC "-//W3C//DTD SVG 1.1//EN" "http://www.w3.org/Graphics/SVG/1.1/DTD/svg11.dtd">
<svg version="1.1" id="Layer_1" xmlns="http://www.w3.org/2000/svg" xmlns:xlink="http://www.w3.org/1999/xlink" x="0px" y="0px"
	 width="200px" height="200px" viewBox="0 0 200 200" enable-background="new 0 0 200 200" xml:space="preserve">
<g>
	<path fill-rule="evenodd" clip-rule="evenodd" fill="#FFFFFF" d="M200,93.77c-2.233,2.508-4.466,5.016-6.696,7.527
		c-1.016,1.141-2.022,2.29-3.038,3.434c-0.18,0.204-0.374,0.395-0.62,0.65c-29.854-26.417-59.671-52.801-89.534-79.225
		C70.232,52.582,40.405,78.96,10.505,105.403C6.996,101.453,3.533,97.557,0,93.582c33.213-29.387,66.403-58.753,99.627-88.15
		c0.28,0.183,0.564,0.48,0.838,0c0.254,0.213,0.468,0.383,0.672,0.563c26.353,23.317,52.706,46.632,79.06,69.95
		c6.576,5.819,13.147,11.644,19.724,17.465c0.019,0.017,0.054,0.017,0.08,0.026C200,93.547,200,93.658,200,93.77z"/>
	<path fill-rule="evenodd" clip-rule="evenodd" fill="#FFFFFF" d="M100.129,39.414c2.03,1.797,3.987,3.526,5.943,5.257
		c21.227,18.79,42.451,37.58,63.688,56.36c0.416,0.366,0.569,0.736,0.569,1.282c-0.012,29.239-0.02,58.479,0.006,87.717
		c0.002,2.438-1.483,3.976-3.029,4.365c-0.479,0.122-0.988,0.164-1.484,0.164c-14.257,0.01-28.516,0.008-42.774,0.008
		c-0.22,0-0.441-0.02-0.77-0.034c-0.008-0.365-0.019-0.716-0.019-1.065c-0.002-10.422-0.002-20.845-0.002-31.268
		c0-2.058,0.015-4.113-0.01-6.17c-0.006-0.55-0.058-1.119-0.21-1.644c-0.474-1.638-1.987-2.796-3.697-2.899
		c-0.276-0.015-0.555-0.009-0.832-0.009c-11.646,0-23.292-0.002-34.937,0.007c-0.551,0-1.12,0.031-1.649,0.164
		c-1.727,0.441-2.94,1.983-3.02,3.762c-0.015,0.361-0.009,0.722-0.009,1.085c0,12.312,0,24.624,0,36.936c0,0.33,0,0.658,0,1.076
		c-0.406,0.023-0.754,0.058-1.103,0.058c-8.477,0.004-16.954,0.002-25.431,0.002c-5.586,0-11.173,0.004-16.759-0.006
		c-0.581-0.002-1.179-0.016-1.735-0.154c-1.654-0.414-2.82-1.802-3.014-3.499c-0.044-0.385-0.053-0.776-0.053-1.164
		c-0.002-29.072,0-58.144-0.016-87.217c0-0.674,0.204-1.116,0.708-1.563c22.992-20.317,45.973-40.649,68.956-60.978
		C99.652,39.807,99.865,39.635,100.129,39.414z"/>
	<path fill-rule="evenodd" clip-rule="evenodd" fill="#FFFFFF" d="M29.917,18.127c8.34,0,16.69,0,25.092,0
		c0.019,0.252,0.052,0.465,0.049,0.679c-0.055,4.557-0.126,9.114-0.156,13.671c-0.004,0.537-0.289,0.802-0.618,1.099
		c-4.188,3.779-8.376,7.558-12.564,11.337c-3.693,3.333-7.385,6.666-11.078,9.998c-0.221,0.2-0.447,0.395-0.698,0.616
		C29.757,54.816,29.741,18.933,29.917,18.127z"/>
</g>
</svg>
