<?xml version="1.0" encoding="utf-8"?>
<!-- Generator: Adobe Illustrator 16.0.0, SVG Export Plug-In . SVG Version: 6.00 Build 0)  -->
<!DOCTYPE svg PUBLIC "-//W3C//DTD SVG 1.1//EN" "http://www.w3.org/Graphics/SVG/1.1/DTD/svg11.dtd">
<svg version="1.1" id="Layer_1" xmlns="http://www.w3.org/2000/svg" xmlns:xlink="http://www.w3.org/1999/xlink" x="0px" y="0px"
	 width="200px" height="200px" viewBox="0 0 200 200" enable-background="new 0 0 200 200" xml:space="preserve">
<g>
	<path fill="#FFFFFF" d="M100,1c54.589,0,99,44.411,99,99s-44.411,99-99,99S1,154.589,1,100S45.411,1,100,1 M100,0
		C44.771,0,0,44.771,0,100c0,55.229,44.771,100,100,100c55.229,0,100-44.771,100-100C200,44.771,155.229,0,100,0L100,0z"/>
</g>
<g>
	<polygon fill="#FFFFFF" points="129.558,44.254 155.286,80.091 146.403,80.091 164.781,105.819 152.836,105.819 173.357,136.755 
		147.017,136.755 148.241,155.746 129.558,155.746 	"/>
	<path fill="#FFFFFF" d="M119.45,93.874V81.928h-19.407v11.946h-5.402v13.171H69.83V93.874h-7.045V69.37H51.452V56.506H45.02V69.37
		H32.462v24.504h-5.819v61.872h98.32V93.874H119.45z M51.146,75.189h6.125v6.127h-6.125V75.189z M38.128,143.034h-6.126v-6.126
		h6.126V143.034z M38.128,130.783h-6.126v-6.127h6.126V130.783z M38.128,118.378h-6.126v-6.126h6.126V118.378z M38.128,106.126
		h-6.126V100h6.126V106.126z M44.254,93.567h-6.126v-6.126h6.126V93.567z M44.254,81.316h-6.126v-6.127h6.126V81.316z
		 M51.146,143.034H45.02v-6.126h6.127V143.034z M51.146,130.783H45.02v-6.127h6.127V130.783z M51.146,118.378H45.02v-6.126h6.127
		V118.378z M51.146,106.126H45.02V100h6.127V106.126z M51.146,87.441h6.125v6.126h-6.125V87.441z M63.398,143.034h-6.127v-6.126
		h6.127V143.034z M63.398,130.783h-6.127v-6.127h6.127V130.783z M63.398,118.378h-6.127v-6.126h6.127V118.378z M63.398,106.126
		h-6.127V100h6.127V106.126z M88.207,143.034h-6.125v-6.126h6.125V143.034z M88.207,130.783h-6.125v-6.127h6.125V130.783z
		 M88.207,118.378h-6.125v-6.126h6.125V118.378z M106.892,143.034h-6.126v-6.126h6.126V143.034z M106.892,130.783h-6.126v-6.127
		h6.126V130.783z M106.892,118.378h-6.126v-6.126h6.126V118.378z M106.892,106.126h-6.126V100h6.126V106.126z M106.892,87.441h6.127
		v6.126h-6.127V87.441z M118.837,143.034h-6.125v-6.126h6.125V143.034z M118.837,130.783h-6.125v-6.127h6.125V130.783z
		 M118.837,118.378h-6.125v-6.126h6.125V118.378z M118.837,106.126h-6.125V100h6.125V106.126z"/>
</g>
</svg>
