<?xml version="1.0" encoding="utf-8"?>
<!-- Generator: Adobe Illustrator 16.0.0, SVG Export Plug-In . SVG Version: 6.00 Build 0)  -->
<!DOCTYPE svg PUBLIC "-//W3C//DTD SVG 1.1//EN" "http://www.w3.org/Graphics/SVG/1.1/DTD/svg11.dtd">
<svg version="1.1" id="Layer_1" xmlns="http://www.w3.org/2000/svg" xmlns:xlink="http://www.w3.org/1999/xlink" x="0px" y="0px"
	 width="200px" height="200px" viewBox="0 0 200 200" enable-background="new 0 0 200 200" xml:space="preserve">
<g>
	<path fill="#FFFFFF" d="M100,1c54.589,0,99,44.411,99,99s-44.411,99-99,99S1,154.589,1,100S45.411,1,100,1 M100,0
		C44.771,0,0,44.771,0,100c0,55.229,44.771,100,100,100c55.229,0,100-44.771,100-100C200,44.771,155.229,0,100,0L100,0z"/>
</g>
<g>
	<path fill-rule="evenodd" clip-rule="evenodd" fill="#FFFFFF" d="M41.652,60.273l12.384-6.757l11.646,6.757c0,0,0,11.31,0,14.658
		c5.081,0,10.493,0,15.599,0c0-13.97,0-27.897,0-42.183c10.369,0,19.998,0,29.926,0c0,8.509,0,16.78,0,25.605
		c3.777,0,7.291,0,11.235,0c0,8.35,0,16.167,0,24.238c3.309,0,6.152,0,9.555,0c0-4.526,0-16.779,0-16.779l24.121-14.591
		c0,0,0,34.671,0,52.047c3.756,0,7.151,0,10.882,0c0,21.398,0,42.379,0,63.944c-8.22,0-16.488,0.105-24.747-0.103
		c-1.09-0.031-2.276-1.359-3.17-2.335c-3.035-3.314-6.44-5.266-11.264-5.07c-5.296,0.193-9.514-2.061-13.462-6.089
		c-3.168-3.209-6.525-5.786-13.597-5.402c0.332-7.072,0.368-17.921,1.525-26.34c0.921-6.891,4.847-10.805,12.175-14.612
		c-4.648,6.205-7.878,11.959-7.023,19.007c13.123,2.716,22.531-12.3,18.378-29.378c-8.491,0.316-16.851,1.201-23.008,8.096
		c-6.046,6.73-5.693,15.231-5.575,24.312c-9.415-8.997-20.593-10.271-32.102-10.721c-1.365,13.491,10.383,25.167,23.569,23.626
		c-1.048-6.237-5.059-10.502-9.692-14.607c8.986,1.451,16.157,8.845,17.282,17.374c0.331,2.52-0.574,3.891-2.674,5.382
		c-6.619,4.72-14.257,5.908-21.933,6.847c-5.616,0.69-9.383,3.585-12.268,8.167c-0.536,0.876-1.818,1.774-2.768,1.796
		c-7.756,0.146-15.503,0.07-23.646,0.07c0-26.741,0-80.284,0-80.284h8.652V60.273z"/>
</g>
</svg>
