<?xml version="1.0" encoding="utf-8"?>
<!-- Generator: Adobe Illustrator 16.0.0, SVG Export Plug-In . SVG Version: 6.00 Build 0)  -->
<!DOCTYPE svg PUBLIC "-//W3C//DTD SVG 1.1//EN" "http://www.w3.org/Graphics/SVG/1.1/DTD/svg11.dtd">
<svg version="1.1" id="Layer_1" xmlns="http://www.w3.org/2000/svg" xmlns:xlink="http://www.w3.org/1999/xlink" x="0px" y="0px"
	 width="200px" height="200px" viewBox="0 0 200 200" enable-background="new 0 0 200 200" xml:space="preserve">
<g>
	<path fill="#FFFFFF" d="M100,1c54.589,0,99,44.411,99,99s-44.411,99-99,99S1,154.589,1,100S45.411,1,100,1 M100,0
		C44.771,0,0,44.771,0,100c0,55.229,44.771,100,100,100c55.229,0,100-44.771,100-100C200,44.771,155.229,0,100,0L100,0z"/>
</g>
<path fill="#FFFFFF" d="M157.73,47.25H96.48c0,0-21.25,5.5-20,38.5c-7.25,7.5-38.5,16.5-49,67h64.5c1.167-15.667,5-38.167,12.5-40
	h39.75C164.48,112.084,188.73,60.083,157.73,47.25z M83.292,82.813c-1.688-2.938,1.125-29.063,15.5-29.688
	c14.375-0.625,15.5,25.75,15.5,25.75L83.292,82.813z"/>
</svg>
