<?xml version="1.0" encoding="utf-8"?>
<!-- Generator: Adobe Illustrator 16.0.0, SVG Export Plug-In . SVG Version: 6.00 Build 0)  -->
<!DOCTYPE svg PUBLIC "-//W3C//DTD SVG 1.1//EN" "http://www.w3.org/Graphics/SVG/1.1/DTD/svg11.dtd">
<svg version="1.1" id="Layer_1" xmlns="http://www.w3.org/2000/svg" xmlns:xlink="http://www.w3.org/1999/xlink" x="0px" y="0px"
	 width="200px" height="200px" viewBox="0 0 200 200" enable-background="new 0 0 200 200" xml:space="preserve">
<g>
	<path fill-rule="evenodd" clip-rule="evenodd" fill="#FFFFFF" d="M38.969,94.929c2.281,1.029,4.162,1.878,7.234,3.265
		c-1.087-8.628-2.074-16.454-3.06-24.28c0.305-0.106,0.61-0.214,0.915-0.32c3.077,6.409,6.154,12.818,9.231,19.229
		c0.633-0.139,1.265-0.277,1.898-0.416c0-5.682-0.488-11.417,0.139-17.028c0.61-5.461,2.361-10.794,4.317-16.08
		c1.507,11.146-0.313,22.489,4.203,34.439c2.95-7.78,5.47-14.428,7.99-21.074c0.66,0.152,1.321,0.306,1.981,0.459
		c-1.237,8.09-2.475,16.181-3.848,25.164c6.313-1.304,11.633-7.693,17.246,0.388c3.033-9.829-1.281-17.591-1.046-26.104
		c3.204,6.254,6.408,12.507,10.269,20.043c3.073-12.479,0.668-24.472,6.334-35.868c0.67,12.864,1.283,24.641,1.896,36.418
		c0.598,0.057,1.195,0.113,1.793,0.171c4.417-7.036,3.688-16.637,10.87-23.368c-0.427,9.836-4.585,18.414-3.137,27.709
		c6.871-2.222,6.871-2.222,16.768,1.342c2.69-8.914-2.952-17.194-1.801-27.21c3.635,7.84,6.772,14.607,9.91,21.374
		c3.759-11.535,0.861-23.786,6.772-34.494c0.629,11.056,1.257,22.111,1.886,33.167c0.677,0.062,1.354,0.122,2.03,0.184
		c2.44-6.179,4.881-12.357,7.321-18.536c0.649,0.132,1.299,0.263,1.947,0.394c-0.95,7.581-1.901,15.163-2.92,23.279
		c2.465-0.572,4.013-0.932,5.557-1.29c3.086,13.418-9.411,24.452-23.435,20.649c-4.259-1.155-8.291-3.376-12.201-5.52
		c-3.533-1.937-6.292-1.789-9.507,0.83c-10.203,8.312-22.059,7.698-31.899-1.326c-3.678-3.372-6.084-3.296-10.494,0.332
		c-9.965,8.198-19.113,8.543-29.746,1.121C37.678,107.288,36.683,104.429,38.969,94.929z"/>
	<path fill-rule="evenodd" clip-rule="evenodd" fill="#FFFFFF" d="M161.208,122.787c1.979,10.826-0.154,15.021-9.676,18.149
		c-8.453,2.776-16.757,2.444-24.078-3.43c-3.598-2.887-7.323-4.101-11.281-0.989c-7.973,6.267-16.625,6.035-24.791,1.43
		c-7.59-4.281-13.284-5.145-20.736,1.197c-8.292,7.056-22.933,4.576-29.73-3.976c-2.171-2.731-2.604-7.362-2.616-11.129
		c-0.009-3.008,2.475-2.809,4.648-1.104c11.859,9.297,20.063,9.193,31.371-0.523c3.138-2.695,6.337-3.371,10.091-1.587
		c4.951,2.353,9.894,4.731,14.913,6.93c5.988,2.622,11.215,1.542,15.92-3.179c5.429-5.447,7.341-5.413,12.928-0.131
		c6.862,6.488,14.498,7.607,22.927,3.635C154.376,126.535,157.528,124.725,161.208,122.787z"/>
</g>
<g>
	<path fill="#FFFFFF" d="M100,1c54.589,0,99,44.411,99,99s-44.411,99-99,99S1,154.589,1,100S45.411,1,100,1 M100,0
		C44.771,0,0,44.771,0,100c0,55.229,44.771,100,100,100c55.229,0,100-44.771,100-100C200,44.771,155.229,0,100,0L100,0z"/>
</g>
</svg>
